<mxfile host="65bd71144e">
    <diagram id="shieldcraft-high-level" name="ShieldCraft AI High-Level AWS Architecture">
        <mxGraphModel dx="758" dy="617" grid="1" gridSize="10" guides="1" tooltips="1" connect="1" arrows="1" fold="1" page="1" pageScale="1" pageWidth="827" pageHeight="1169" math="0" shadow="0">
            <root>
                <mxCell id="0"/>
                <mxCell id="1" parent="0"/>
                <mxCell id="networking" value="Networking (VPC, Subnets, SGs)" style="rounded=1;fillColor=#e0e7ff;strokeColor=#6366f1;fontSize=14;fontColor=#222;" parent="1" vertex="1">
                    <mxGeometry x="40" y="40" width="320" height="60" as="geometry"/>
                </mxCell>
                <mxCell id="iam" value="IAM (Roles, Policies)" style="rounded=1;fillColor=#e0e7ff;strokeColor=#6366f1;fontSize=14;fontColor=#222;" parent="1" vertex="1">
                    <mxGeometry x="370" y="40" width="220" height="60" as="geometry"/>
                </mxCell>
                <mxCell id="s3" value="S3" style="rounded=1;fillColor=#fef9c3;strokeColor=#f59e42;fontSize=14;fontColor=#222;" parent="1" vertex="1">
                    <mxGeometry x="40" y="120" width="160" height="50" as="geometry"/>
                </mxCell>
                <mxCell id="lakeformation" value="Lake Formation" style="rounded=1;fillColor=#fef9c3;strokeColor=#f59e42;fontSize=14;fontColor=#222;" parent="1" vertex="1">
                    <mxGeometry x="210" y="120" width="200" height="50" as="geometry"/>
                </mxCell>
                <mxCell id="secretsmanager" value="Secrets Manager" style="rounded=1;fillColor=#fef9c3;strokeColor=#f59e42;fontSize=14;fontColor=#222;" parent="1" vertex="1">
                    <mxGeometry x="420" y="120" width="200" height="50" as="geometry"/>
                </mxCell>
                <mxCell id="glue" value="Glue" style="rounded=1;fillColor=#bbf7d0;strokeColor=#22c55e;fontSize=14;fontColor=#222;" parent="1" vertex="1">
                    <mxGeometry x="40" y="190" width="160" height="50" as="geometry"/>
                </mxCell>
                <mxCell id="airbyte" value="Airbyte" style="rounded=1;fillColor=#bbf7d0;strokeColor=#22c55e;fontSize=14;fontColor=#222;" parent="1" vertex="1">
                    <mxGeometry x="210" y="190" width="200" height="50" as="geometry"/>
                </mxCell>
                <mxCell id="dataquality" value="DataQuality" style="rounded=1;fillColor=#bbf7d0;strokeColor=#22c55e;fontSize=14;fontColor=#222;" parent="1" vertex="1">
                    <mxGeometry x="420" y="190" width="200" height="50" as="geometry"/>
                </mxCell>
                <mxCell id="lambda" value="Lambda" style="rounded=1;fillColor=#bae6fd;strokeColor=#0ea5e9;fontSize=14;fontColor=#222;" parent="1" vertex="1">
                    <mxGeometry x="40" y="260" width="160" height="50" as="geometry"/>
                </mxCell>
                <mxCell id="msk" value="MSK" style="rounded=1;fillColor=#bae6fd;strokeColor=#0ea5e9;fontSize=14;fontColor=#222;" parent="1" vertex="1">
                    <mxGeometry x="210" y="260" width="200" height="50" as="geometry"/>
                </mxCell>
                <mxCell id="sagemaker" value="SageMaker" style="rounded=1;fillColor=#bae6fd;strokeColor=#0ea5e9;fontSize=14;fontColor=#222;" parent="1" vertex="1">
                    <mxGeometry x="420" y="260" width="200" height="50" as="geometry"/>
                </mxCell>
                <mxCell id="opensearch" value="OpenSearch" style="rounded=1;fillColor=#bae6fd;strokeColor=#0ea5e9;fontSize=14;fontColor=#222;" parent="1" vertex="1">
                    <mxGeometry x="630" y="260" width="200" height="50" as="geometry"/>
                </mxCell>
                <mxCell id="stepfunctions" value="Step Functions" style="rounded=1;fillColor=#fca5a5;strokeColor=#ef4444;fontSize=14;fontColor=#222;" parent="1" vertex="1">
                    <mxGeometry x="40" y="330" width="200" height="50" as="geometry"/>
                </mxCell>
                <mxCell id="eventbridge" value="EventBridge" style="rounded=1;fillColor=#fca5a5;strokeColor=#ef4444;fontSize=14;fontColor=#222;" parent="1" vertex="1">
                    <mxGeometry x="250" y="330" width="200" height="50" as="geometry"/>
                </mxCell>
                <mxCell id="cloudnative" value="Cloud Native Hardening" style="rounded=1;fillColor=#f5d0fe;strokeColor=#d946ef;fontSize=14;fontColor=#222;" parent="1" vertex="1">
                    <mxGeometry x="40" y="400" width="250" height="50" as="geometry"/>
                </mxCell>
                <mxCell id="attacksim" value="Attack Simulation" style="rounded=1;fillColor=#f5d0fe;strokeColor=#d946ef;fontSize=14;fontColor=#222;" parent="1" vertex="1">
                    <mxGeometry x="310" y="400" width="250" height="50" as="geometry"/>
                </mxCell>
                <mxCell id="compliance" value="Compliance" style="rounded=1;fillColor=#f5d0fe;strokeColor=#d946ef;fontSize=14;fontColor=#222;" parent="1" vertex="1">
                    <mxGeometry x="580" y="400" width="250" height="50" as="geometry"/>
                </mxCell>
                <mxCell id="budget" value="Budget" style="rounded=1;fillColor=#d1fae5;strokeColor=#10b981;fontSize=14;fontColor=#222;" parent="1" vertex="1">
                    <mxGeometry x="40" y="470" width="250" height="50" as="geometry"/>
                </mxCell>
                <mxCell id="16" value="" style="shape=image;verticalLabelPosition=bottom;labelBackgroundColor=default;verticalAlign=top;aspect=fixed;imageAspect=0;image=data:image/svg+xml,PHN2ZyB4bWxuczp4bGluaz0iaHR0cDovL3d3dy53My5vcmcvMTk5OS94bGluayIgeG1sbnM9Imh0dHA6Ly93d3cudzMub3JnLzIwMDAvc3ZnIiB2ZXJzaW9uPSIxLjEiIHZpZXdCb3g9IjAgMCA2NCA2NCIgaGVpZ2h0PSI2NHB4IiB3aWR0aD0iNjRweCI+CiAgICA8dGl0bGU+SWNvbi1BcmNoaXRlY3R1cmUvNDgvQXJjaF9BbWF6b24tRGV0ZWN0aXZlXzQ4PC90aXRsZT4KICAgIDxnIGZpbGwtcnVsZT0iZXZlbm9kZCIgZmlsbD0ibm9uZSIgc3Ryb2tlLXdpZHRoPSIxIiBzdHJva2U9Im5vbmUiIGlkPSJJY29uLUFyY2hpdGVjdHVyZS80OC9BcmNoX0FtYXpvbi1EZXRlY3RpdmVfNDgiPgogICAgICAgIDxnIGZpbGw9IiNERDM0NEMiIGlkPSJJY29uLUFyY2hpdGVjdHVyZS1CRy80OC9TZWN1cml0eS1JZGVudGl0eS1Db21wbGlhbmNlIj4KICAgICAgICAgICAgPHJlY3QgaGVpZ2h0PSI2NCIgd2lkdGg9IjY0IiB5PSIwIiB4PSIwIiBpZD0iUmVjdGFuZ2xlIi8+CiAgICAgICAgPC9nPgogICAgICAgIDxwYXRoIGZpbGw9IiNGRkZGRkYiIGlkPSJBbWF6b24tRGV0ZWN0aXZlX0ljb25fNDhfU3F1aWQiIGQ9Ik0yMS44MDYsMjEuOTU0MDM1NyBDMjMuMjgsMjIuMzQ0MDM1NyAyNS4wMiwyMi45MjQwMzU3IDI2LjgxNywyMy41MjMwMzU3IEMyOS41NTcsMjQuNDM2MDM1NyAzMi42NjIsMjUuNDcyMDM1NyAzNCwyNS40NzIwMzU3IEMzNS4zMzgsMjUuNDcyMDM1NyAzOC40NDQsMjQuNDM2MDM1NyA0MS4xODQsMjMuNTIzMDM1NyBDNDIuOTgxLDIyLjkyNDAzNTcgNDQuNzIxLDIyLjM0NDAzNTcgNDYuMTk1LDIxLjk1NDAzNTcgTDQzLjg5OCwyMC41NzcwMzU3IEM0Mi4wNSwyMS4yNTgwMzU3IDM1LjkwMywyMy40NzIwMzU3IDM0LDIzLjQ3MjAzNTcgQzMyLjA5OCwyMy40NzIwMzU3IDI1Ljk1MSwyMS4yNTgwMzU3IDI0LjEwMywyMC41NzcwMzU3IEwyMS44MDYsMjEuOTU0MDM1NyBaIE0yNS4zODIsMTguOTE1MDM1NyBDMjguNDU2LDIwLjAzMjAzNTcgMzIuODE2LDIxLjQ3MjAzNTcgMzQsMjEuNDcyMDM1NyBDMzUuMTgzLDIxLjQ3MjAzNTcgMzkuNTMsMjAuMDM2MDM1NyA0Mi42MDMsMTguOTIwMDM1NyBMMzguODQ3LDEyLjE1MDAzNTcgQzM4Ljc2MywxMi4wMTgwMzU3IDM4LjUyOCwxMS45NjIwMzU3IDM4LjM1LDEyLjA2OTAzNTcgTDM1LjIyNywxMy45NDMwMzU3IEMzNC40NzEsMTQuMzk3MDM1NyAzMy41MywxNC4zOTcwMzU3IDMyLjc3NCwxMy45NDMwMzU3IEwyOS42NTEsMTIuMDY5MDM1NyBDMjkuNDU5LDExLjk1NTAzNTcgMjkuMTk5LDEyLjAwMjAzNTcgMjkuMDQ1LDEyLjA2ODAzNTcgTDI1LjM4MiwxOC45MTUwMzU3IFogTTQxLjkxMywyNS4zODgwMzU3IEM0MS44ODEsMjUuMzk5MDM1NyA0MS44NDgsMjUuNDEwMDM1NyA0MS44MTcsMjUuNDIwMDM1NyBDMzguNjUyLDI2LjQ3NTAzNTcgMzUuNjYyLDI3LjQ3MjAzNTcgMzQsMjcuNDcyMDM1NyBDMzIuMzM4LDI3LjQ3MjAzNTcgMjkuMzQ5LDI2LjQ3NTAzNTcgMjYuMTg0LDI1LjQyMDAzNTcgQzI2LjE1MywyNS40MTAwMzU3IDI2LjExOSwyNS4zOTkwMzU3IDI2LjA4NywyNS4zODgwMzU3IEMyNi43MjIsMjkuMzEyMDM1NyAzMS4wMjYsMzUuNDcyMDM1NyAzNCwzNS40NzIwMzU3IEMzNi45NzUsMzUuNDcyMDM1NyA0MS4yNzksMjkuMzEyMDM1NyA0MS45MTMsMjUuMzg4MDM1NyBMNDEuOTEzLDI1LjM4ODAzNTcgWiBNMTguMDM2LDIyLjczOTAzNTcgQzE3LjkxNiwyMi4zMDYwMzU3IDE4LjEsMjEuODQ1MDM1NyAxOC40ODYsMjEuNjE0MDM1NyBMMjMuMTc1LDE4LjgwMDAzNTcgTDI3LjM5OCwxMC45MDcwMzU3IEMyNy40NTQsMTAuODAyMDM1NyAyNy41MjksMTAuNzA3MDM1NyAyNy42MTgsMTAuNjI4MDM1NyBDMjguMzEsMTAuMDIwMDM1NyAyOS42MTgsOS43MTcwMzU3MiAzMC42OCwxMC4zNTQwMzU3IEwzMy44MDMsMTIuMjI4MDM1NyBDMzMuOTI0LDEyLjMwMTAzNTcgMzQuMDc3LDEyLjMwMTAzNTcgMzQuMTk4LDEyLjIyODAzNTcgTDM3LjMyMSwxMC4zNTQwMzU3IEMzOC40MjksOS42ODkwMzU3MiAzOS44ODMsMTAuMDQxMDM1NyA0MC41NjksMTEuMTM0MDM1NyBMNDQuODIyLDE4Ljc5ODAzNTcgTDQ5LjUxNSwyMS42MTQwMzU3IEM0OS45MDEsMjEuODQ1MDM1NyA1MC4wODQsMjIuMzA2MDM1NyA0OS45NjQsMjIuNzM5MDM1NyBDNDkuODQ0LDIzLjE3MjAzNTcgNDkuNDUsMjMuNDcyMDM1NyA0OSwyMy40NzIwMzU3IEM0OC4wMDksMjMuNDcyMDM1NyA0Ni4wNDgsMjQuMDQwMDM1NyA0My45ODUsMjQuNzA2MDM1NyBDNDMuODE1LDI5LjI3NjAzNTcgMzguNjI1LDM3LjQ3MjAzNTcgMzQsMzcuNDcyMDM1NyBDMjkuMzc1LDM3LjQ3MjAzNTcgMjQuMTg2LDI5LjI3NjAzNTcgMjQuMDE2LDI0LjcwNjAzNTcgQzIxLjk1MiwyNC4wNDAwMzU3IDE5Ljk5MiwyMy40NzIwMzU3IDE5LDIzLjQ3MjAzNTcgQzE4LjU1MSwyMy40NzIwMzU3IDE4LjE1NywyMy4xNzIwMzU3IDE4LjAzNiwyMi43MzkwMzU3IEwxOC4wMzYsMjIuNzM5MDM1NyBaIE00Ny40MjMsMzguNDY2MDM1NyBMNDcuNzEsMzguMTc5MDM1NyBDNDcuOTE1LDM3Ljk3NDAzNTcgNDguMDIxLDM3LjY5MDAzNTcgNDgsMzcuNDAxMDM1NyBDNDcuOTgsMzcuMTExMDM1NyA0Ny44MzUsMzYuODQ1MDM1NyA0Ny42MDMsMzYuNjcxMDM1NyBMNDMuNiwzMy42NzEwMzU3IEw0Mi40MDEsMzUuMjcyMDM1NyBMNDUuNDgxLDM3LjU4MDAzNTcgTDQ1LjA0MywzOC4wMTcwMzU3IEM0NS4wMjksMzguMDE3MDM1NyA0NS4wMTUsMzguMDE1MDM1NyA0NSwzOC4wMTUwMzU3IEw0NSwzOC4wNjAwMzU3IEwzOS4yOTMsNDMuNzY1MDM1NyBDMzkuMTA2LDQzLjk1MjAzNTcgMzksNDQuMjA2MDM1NyAzOSw0NC40NzIwMzU3IEMzOSw0NC43MzcwMzU3IDM5LjEwNiw0NC45OTEwMzU3IDM5LjI5Myw0NS4xNzkwMzU3IEw0MS42NDgsNDcuNTMzMDM1NyBMMzcuMjMyLDUyLjgzMTAzNTcgTDM4Ljc2OSw1NC4xMTIwMzU3IEw0My43NjksNDguMTEyMDM1NyBDNDQuMSw0Ny43MTQwMzU3IDQ0LjA3NCw0Ny4xMzAwMzU3IDQzLjcwNyw0Ni43NjUwMzU3IEw0MS40MTQsNDQuNDcyMDM1NyBMNDUuNzk0LDQwLjA5NDAzNTcgQzQ4Ljg5Myw0MC42MzcwMzU3IDUyLDQ0LjE5ODAzNTcgNTIsNDcuNDcyMDM1NyBMNTIsNTQuMzc4MDM1NyBMNTQsNTQuMzc4MDM1NyBMNTQsNDcuNDcyMDM1NyBDNTQsNDMuNjQzMDM1NyA1MC45NjUsMzkuNzU5MDM1NyA0Ny40MjMsMzguNDY2MDM1NyBMNDcuNDIzLDM4LjQ2NjAzNTcgWiBNMjkuNzc0LDUxLjA0NDAzNTcgTDI1LjA4Niw0Ni4zMzUwMzU3IEMyNC43MjMsNDYuNzgxMDM1NyAyNC4zMTcsNDcuMTg4MDM1NyAyMy44NzEsNDcuNTUyMDM1NyBMMjguNTY5LDUyLjI0NzAzNTcgQzI4Ljg4MSw1Mi41NTkwMzU3IDI5LjQwNiw1Mi41NDQwMzU3IDI5LjczOCw1Mi4yMTIwMzU3IEMzMC4wNyw1MS44ODAwMzU3IDMwLjA4NSw1MS4zNTYwMzU3IDI5Ljc3NCw1MS4wNDQwMzU3IEwyOS43NzQsNTEuMDQ0MDM1NyBaIE0xOC41LDQ3LjQ3MjAzNTcgQzIyLjA4NCw0Ny40NzIwMzU3IDI1LDQ0LjU1NjAzNTcgMjUsNDAuOTcyMDM1NyBDMjUsMzcuMzg4MDM1NyAyMi4wODQsMzQuNDcyMDM1NyAxOC41LDM0LjQ3MjAzNTcgQzE0LjkxNiwzNC40NzIwMzU3IDEyLDM3LjM4ODAzNTcgMTIsNDAuOTcyMDM1NyBDMTIsNDQuNTU2MDM1NyAxNC45MTYsNDcuNDcyMDM1NyAxOC41LDQ3LjQ3MjAzNTcgTDE4LjUsNDcuNDcyMDM1NyBaIE0zMS4xOTIsNDkuNjMzMDM1NyBDMzIuMjgsNTAuNzI1MDM1NyAzMi4yNjIsNTIuNTE3MDM1NyAzMS4xNTIsNTMuNjI2MDM1NyBDMzAuNTksNTQuMTg4MDM1NyAyOS44NTQsNTQuNDcwMDM1NyAyOS4xMjEsNTQuNDcwMDM1NyBDMjguNDA2LDU0LjQ3MDAzNTcgMjcuNjk1LDU0LjIwMTAzNTcgMjcuMTU1LDUzLjY2MjAzNTcgTDIyLjEzNSw0OC42NDMwMzU3IEMyMS4wMzIsNDkuMTY5MDM1NyAxOS44MDIsNDkuNDcyMDM1NyAxOC41LDQ5LjQ3MjAzNTcgQzEzLjgxNCw0OS40NzIwMzU3IDEwLDQ1LjY1OTAzNTcgMTAsNDAuOTcyMDM1NyBDMTAsMzYuMjg1MDM1NyAxMy44MTQsMzIuNDcyMDM1NyAxOC41LDMyLjQ3MjAzNTcgQzIzLjE4NywzMi40NzIwMzU3IDI3LDM2LjI4NTAzNTcgMjcsNDAuOTcyMDM1NyBDMjcsNDIuMjY5MDM1NyAyNi43LDQzLjQ5NTAzNTcgMjYuMTc4LDQ0LjU5NjAzNTcgTDMxLjE5Miw0OS42MzMwMzU3IFogTTM4LjI5MywzNy43NjUwMzU3IEwzNCw0Mi4wNTgwMzU3IEwyOS43MDcsMzcuNzY1MDM1NyBMMjguMjkzLDM5LjE3OTAzNTcgTDMzLjI5Myw0NC4xNzkwMzU3IEMzMy40ODksNDQuMzc0MDM1NyAzMy43NDQsNDQuNDcyMDM1NyAzNCw0NC40NzIwMzU3IEMzNC4yNTYsNDQuNDcyMDM1NyAzNC41MTIsNDQuMzc0MDM1NyAzNC43MDcsNDQuMTc5MDM1NyBMMzkuNzA3LDM5LjE3OTAzNTcgTDM4LjI5MywzNy43NjUwMzU3IFogTTQ2LDU0LjM3OTAzNTcgTDQ4LDU0LjM3OTAzNTcgTDQ4LDQ4LjQ3MjAzNTcgTDQ2LDQ4LjQ3MjAzNTcgTDQ2LDU0LjM3OTAzNTcgWiIvPgogICAgPC9nPgo8L3N2Zz4=;" vertex="1" parent="1">
                    <mxGeometry x="327" y="407.5" width="38" height="38" as="geometry"/>
                </mxCell>
                <mxCell id="17" value="" style="shape=image;verticalLabelPosition=bottom;labelBackgroundColor=default;verticalAlign=top;aspect=fixed;imageAspect=0;image=data:image/svg+xml,PHN2ZyB4bWxuczp4bGluaz0iaHR0cDovL3d3dy53My5vcmcvMTk5OS94bGluayIgeG1sbnM9Imh0dHA6Ly93d3cudzMub3JnLzIwMDAvc3ZnIiB2ZXJzaW9uPSIxLjEiIHZpZXdCb3g9IjAgMCA2NCA2NCIgaGVpZ2h0PSI2NHB4IiB3aWR0aD0iNjRweCI+CiAgICA8dGl0bGU+SWNvbi1BcmNoaXRlY3R1cmUvNDgvQXJjaF9BV1MtQ2xvdWRUcmFpbF80ODwvdGl0bGU+CiAgICA8ZyBmaWxsLXJ1bGU9ImV2ZW5vZGQiIGZpbGw9Im5vbmUiIHN0cm9rZS13aWR0aD0iMSIgc3Ryb2tlPSJub25lIiBpZD0iSWNvbi1BcmNoaXRlY3R1cmUvNDgvQXJjaF9BV1MtQ2xvdWRUcmFpbF80OCI+CiAgICAgICAgPGcgZmlsbD0iI0U3MTU3QiIgaWQ9Ikljb24tQXJjaGl0ZWN0dXJlLUJHLzQ4L01hbmFnZW1lbnQtR292ZXJuYW5jZSI+CiAgICAgICAgICAgIDxyZWN0IGhlaWdodD0iNjQiIHdpZHRoPSI2NCIgeT0iMCIgeD0iMCIgaWQ9IlJlY3RhbmdsZSIvPgogICAgICAgIDwvZz4KICAgICAgICA8cGF0aCBmaWxsPSIjRkZGRkZGIiBpZD0iQVdTLUNsb3VkVHJhaWxfSWNvbl80OF9TcXVpZCIgZD0iTTIwLDQxLjk3Mzg3ODggTDIzLDQxLjk3Mzg3ODggTDIzLDM5Ljk2MDgxODEgTDIwLDM5Ljk2MDgxODEgTDIwLDQxLjk3Mzg3ODggWiBNMjIsMzcuOTQ3NzU3NSBMMjgsMzcuOTQ3NzU3NSBMMjgsMzUuOTM0Njk2OSBMMjIsMzUuOTM0Njk2OSBMMjIsMzcuOTQ3NzU3NSBaIE00Ni45NiwzMC4wNjM2MDU2IEM0Ni43MzQsMjcuNzI5NDYxOCA0NS41NTYsMjYuMDEzMzI3NiA0My43MTIsMjUuMzkyMjk4NCBDNDIuMjM4LDI0Ljg5NzA4NTUgNDAuNjI5LDI1LjE5OTA0NDYgMzkuMzUxLDI2LjEzNjEyNDMgQzM4LjY2NiwyNC42OTI3NTk5IDM3LjY4OCwyMy4xMTE1MDA3IDM2LjcwMiwyMi4xMzMxNTMzIEMzMy40NzIsMTguOTI1MzQxMiAyOS43NDEsMTguMTc1NDc2MSAyNS42MTYsMTkuOTA3NzE0OCBDMjIuMjU5LDIxLjMxMTgyNDUgMTkuMzg5LDI1LjQxMDQxNiAxOS4wMzYsMjkuMTM5NjEwOCBDMTcuMTksMjkuNzkzODU1NSAxNS4wMDgsMzEuMjQxMjQ2MSAxNC4wNzQsMzMuNTQxMTY3OCBMMTUuOTI2LDM0LjMwMjEwNDcgQzE2LjY1MywzMi41MTE0ODczIDE4LjYyLDMxLjI4ODU1MyAyMC4yNDcsMzAuODcwODQyOSBDMjAuNjksMzAuNzU3MTA1IDIxLDMwLjM1NTQ5OTQgMjEsMjkuODk1NTE1IEMyMSwyNi44MTk1NTg0IDIzLjU2NiwyMi45NDU0MjMyIDI2LjM4NSwyMS43NjU3Njk3IEMyOS43ODksMjAuMzM1NDkwMSAzMi42MjMsMjAuOTA5MjEyNCAzNS4yOTgsMjMuNTY2NDUyNCBDMzYuMzU5LDI0LjYxOTI4MzEgMzcuNTM1LDI2Ljc2MTE3OTYgMzguMDYsMjguMjIzNjY4MiBDMzguMTg0LDI4LjU3MTkyNzcgMzguNDg4LDI4LjgyMjU1MzcgMzguODUyLDI4Ljg3NzkxMjkgQzM5LjIyMiwyOC45MzcyOTgyIDM5LjU3OSwyOC43ODMyOTkgMzkuNzk5LDI4LjQ4NzM3OTEgQzQwLjYxNiwyNy4zOTQyODcyIDQxLjkyOSwyNi45MTgxOTg0IDQzLjA3OCwyNy4zMDE2ODY0IEM0NC4zLDI3LjcxMjM1MDggNDUsMjkuMDI0ODY2MyA0NSwzMC45MDIwNDUzIEM0NSwzMS4zOTQyMzg3IDQ1LjM1NCwzMS44MTM5NjE4IDQ1LjgzNiwzMS44OTQ0ODQyIEM0OS45MjYsMzIuNTc4OTI0OCA1MiwzNC42MTUxMzU3IDUyLDM3Ljk0Nzc1NzUgQzUyLDQzLjc4MDYwMDcgNDYuNjExLDQzLjk4MjkxMzMgNDYsNDMuOTg2OTM5NCBMMjksNDMuOTg2OTM5NCBMMjksNDYgTDQ2LDQ2IEM0OC43NjcsNDYgNTQsNDQuMzE3MDgxMyA1NCwzNy45NDc3NTc1IEM1NCwzMy44NDIxMjA0IDUxLjUwOSwzMS4wNjYxMDk4IDQ2Ljk2LDMwLjA2MzYwNTYgTDQ2Ljk2LDMwLjA2MzYwNTYgWiBNMjIsNDYgTDI2LDQ2IEwyNiw0My45ODY5Mzk0IEwyMiw0My45ODY5Mzk0IEwyMiw0NiBaIE0yNSw0MS45NzM4Nzg4IEwzNiw0MS45NzM4Nzg4IEwzNiwzOS45NjA4MTgxIEwyNSwzOS45NjA4MTgxIEwyNSw0MS45NzM4Nzg4IFogTTExLDQxLjk3Mzg3ODggTDE4LDQxLjk3Mzg3ODggTDE4LDM5Ljk2MDgxODEgTDExLDM5Ljk2MDgxODEgTDExLDQxLjk3Mzg3ODggWiBNMTMsMzcuOTQ3NzU3NSBMMTksMzcuOTQ3NzU3NSBMMTksMzUuOTM0Njk2OSBMMTMsMzUuOTM0Njk2OSBMMTMsMzcuOTQ3NzU3NSBaIE0xNCw0NiBMMjAsNDYgTDIwLDQzLjk4NjkzOTQgTDE0LDQzLjk4NjkzOTQgTDE0LDQ2IFogTTEwLDQ2IEwxMiw0NiBMMTIsNDMuOTg2OTM5NCBMMTAsNDMuOTg2OTM5NCBMMTAsNDYgWiIvPgogICAgPC9nPgo8L3N2Zz4=;" vertex="1" parent="1">
                    <mxGeometry x="592" y="407.5" width="38" height="38" as="geometry"/>
                </mxCell>
                <mxCell id="19" value="" style="shape=image;verticalLabelPosition=bottom;labelBackgroundColor=default;verticalAlign=top;aspect=fixed;imageAspect=0;image=data:image/svg+xml,PHN2ZyB4bWxuczp4bGluaz0iaHR0cDovL3d3dy53My5vcmcvMTk5OS94bGluayIgeG1sbnM9Imh0dHA6Ly93d3cudzMub3JnLzIwMDAvc3ZnIiB2ZXJzaW9uPSIxLjEiIHZpZXdCb3g9IjAgMCA2NCA2NCIgaGVpZ2h0PSI2NHB4IiB3aWR0aD0iNjRweCI+CiAgICA8dGl0bGU+SWNvbi1BcmNoaXRlY3R1cmUvNDgvQXJjaF9BV1MtU3RlcC1GdW5jdGlvbnNfNDg8L3RpdGxlPgogICAgPGcgZmlsbC1ydWxlPSJldmVub2RkIiBmaWxsPSJub25lIiBzdHJva2Utd2lkdGg9IjEiIHN0cm9rZT0ibm9uZSIgaWQ9Ikljb24tQXJjaGl0ZWN0dXJlLzQ4L0FyY2hfQVdTLVN0ZXAtRnVuY3Rpb25zXzQ4Ij4KICAgICAgICA8ZyBmaWxsPSIjRTcxNTdCIiBpZD0iSWNvbi1BcmNoaXRlY3R1cmUtQkcvNDgvQXBwbGljYXRpb24tSW50ZWdyYXRpb24iPgogICAgICAgICAgICA8cmVjdCBoZWlnaHQ9IjY0IiB3aWR0aD0iNjQiIHk9IjAiIHg9IjAiIGlkPSJSZWN0YW5nbGUiLz4KICAgICAgICA8L2c+CiAgICAgICAgPHBhdGggZmlsbD0iI0ZGRkZGRiIgaWQ9IkFXU19TdGVwX0Z1bmN0aW9uc19JY29uXzQ4X1NxdWlkIiBkPSJNMzcsMzQgTDUyLDM0IEw1MiwzMCBMMzcsMzAgTDM3LDM0IFogTTUzLDI4IEwzNiwyOCBDMzUuNDQ3LDI4IDM1LDI4LjQ0OCAzNSwyOSBMMzUsMzUgQzM1LDM1LjU1MiAzNS40NDcsMzYgMzYsMzYgTDUzLDM2IEM1My41NTMsMzYgNTQsMzUuNTUyIDU0LDM1IEw1NCwyOSBDNTQsMjguNDQ4IDUzLjU1MywyOCA1MywyOCBMNTMsMjggWiBNMzQuNSw0OS41IEMzNC41LDUwLjg3OCAzMy4zNzksNTIgMzIsNTIgQzMwLjYyMSw1MiAyOS41LDUwLjg3OCAyOS41LDQ5LjUgQzI5LjUsNDguMTIyIDMwLjYyMSw0NyAzMiw0NyBDMzMuMzc5LDQ3IDM0LjUsNDguMTIyIDM0LjUsNDkuNSBMMzQuNSw0OS41IFogTTEyLDM4IEwxMiwzNSBMMjUsMzUgTDI1LDM4IEwyMCwzOCBMMTgsMzggTDEyLDM4IFogTTEyLDI5IEwxMiwyNiBMMTgsMjYgTDIwLDI2IEwyNSwyNiBMMjUsMjkgTDEyLDI5IFogTTI5LjUsMTQuNSBDMjkuNSwxMy4xMjIgMzAuNjIxLDEyIDMyLDEyIEMzMy4zNzksMTIgMzQuNSwxMy4xMjIgMzQuNSwxNC41IEMzNC41LDE1Ljg3OCAzMy4zNzksMTcgMzIsMTcgQzMwLjYyMSwxNyAyOS41LDE1Ljg3OCAyOS41LDE0LjUgTDI5LjUsMTQuNSBaIE00NCw0MiBMMjAsNDIgTDIwLDQwIEwyNiw0MCBDMjYuNTUzLDQwIDI3LDM5LjU1MiAyNywzOSBMMjcsMzQgQzI3LDMzLjQ0OCAyNi41NTMsMzMgMjYsMzMgTDIwLDMzIEwyMCwzMSBMMjYsMzEgQzI2LjU1MywzMSAyNywzMC41NTIgMjcsMzAgTDI3LDI1IEMyNywyNC40NDggMjYuNTUzLDI0IDI2LDI0IEwyMCwyNCBMMjAsMjIgTDQ0LDIyIEw0NCwyNiBMNDYsMjYgTDQ2LDIxIEM0NiwyMC40NDggNDUuNTUzLDIwIDQ1LDIwIEwzMywyMCBMMzMsMTguODc5IEMzNSwxOC40MjIgMzYuNSwxNi42MzcgMzYuNSwxNC41IEMzNi41LDEyLjAxOSAzNC40ODEsMTAgMzIsMTAgQzI5LjUxOSwxMCAyNy41LDEyLjAxOSAyNy41LDE0LjUgQzI3LjUsMTYuNjM3IDI5LDE4LjQyMiAzMSwxOC44NzkgTDMxLDIwIEwxOSwyMCBDMTguNDQ3LDIwIDE4LDIwLjQ0OCAxOCwyMSBMMTgsMjQgTDExLDI0IEMxMC40NDcsMjQgMTAsMjQuNDQ4IDEwLDI1IEwxMCwzMCBDMTAsMzAuNTUyIDEwLjQ0NywzMSAxMSwzMSBMMTgsMzEgTDE4LDMzIEwxMSwzMyBDMTAuNDQ3LDMzIDEwLDMzLjQ0OCAxMCwzNCBMMTAsMzkgQzEwLDM5LjU1MiAxMC40NDcsNDAgMTEsNDAgTDE4LDQwIEwxOCw0MyBDMTgsNDMuNTUyIDE4LjQ0Nyw0NCAxOSw0NCBMMzEsNDQgTDMxLDQ1LjEyMSBDMjksNDUuNTc4IDI3LjUsNDcuMzYzIDI3LjUsNDkuNSBDMjcuNSw1MS45ODEgMjkuNTE5LDU0IDMyLDU0IEMzNC40ODEsNTQgMzYuNSw1MS45ODEgMzYuNSw0OS41IEMzNi41LDQ3LjM2MyAzNSw0NS41NzggMzMsNDUuMTIxIEwzMyw0NCBMNDUsNDQgQzQ1LjU1Myw0NCA0Niw0My41NTIgNDYsNDMgTDQ2LDM4IEw0NCwzOCBMNDQsNDIgWiIvPgogICAgPC9nPgo8L3N2Zz4=;" vertex="1" parent="1">
                    <mxGeometry x="47.5" y="336" width="38" height="38" as="geometry"/>
                </mxCell>
                <mxCell id="25" value="" style="shape=image;verticalLabelPosition=bottom;labelBackgroundColor=default;verticalAlign=top;aspect=fixed;imageAspect=0;image=data:image/svg+xml,PHN2ZyB4bWxuczp4bGluaz0iaHR0cDovL3d3dy53My5vcmcvMTk5OS94bGluayIgeG1sbnM9Imh0dHA6Ly93d3cudzMub3JnLzIwMDAvc3ZnIiB2ZXJzaW9uPSIxLjEiIHZpZXdCb3g9IjAgMCA2NCA2NCIgaGVpZ2h0PSI2NHB4IiB3aWR0aD0iNjRweCI+CiAgICA8dGl0bGU+SWNvbi1BcmNoaXRlY3R1cmUvNDgvQXJjaF9BV1MtU2VjcmV0cy1NYW5hZ2VyXzQ4PC90aXRsZT4KICAgIDxnIGZpbGwtcnVsZT0iZXZlbm9kZCIgZmlsbD0ibm9uZSIgc3Ryb2tlLXdpZHRoPSIxIiBzdHJva2U9Im5vbmUiIGlkPSJJY29uLUFyY2hpdGVjdHVyZS80OC9BcmNoX0FXUy1TZWNyZXRzLU1hbmFnZXJfNDgiPgogICAgICAgIDxnIGZpbGw9IiNERDM0NEMiIGlkPSJJY29uLUFyY2hpdGVjdHVyZS1CRy80OC9TZWN1cml0eS1JZGVudGl0eS1Db21wbGlhbmNlIj4KICAgICAgICAgICAgPHJlY3QgaGVpZ2h0PSI2NCIgd2lkdGg9IjY0IiB5PSIwIiB4PSIwIiBpZD0iUmVjdGFuZ2xlIi8+CiAgICAgICAgPC9nPgogICAgICAgIDxwYXRoIGZpbGw9IiNGRkZGRkYiIGlkPSJBV1MtU2VjcmV0cy1NYW5hZ2VyX0ljb25fNDhfU3F1aWQiIGQ9Ik0zMS4yNCwzNC42NCBDMzEuMjQsMzUuMDU5IDMxLjU4MSwzNS40IDMyLDM1LjQgQzMyLjQxOSwzNS40IDMyLjc2LDM1LjA1OSAzMi43NiwzNC42NCBDMzIuNzYsMzQuMjIxIDMyLjQxOSwzMy44OCAzMiwzMy44OCBDMzEuNTgxLDMzLjg4IDMxLjI0LDM0LjIyMSAzMS4yNCwzNC42NCBMMzEuMjQsMzQuNjQgWiBNMjkuMjQsMzQuNjQgQzI5LjI0LDMzLjExOCAzMC40NzgsMzEuODggMzIsMzEuODggQzMzLjUyMSwzMS44OCAzNC43NiwzMy4xMTggMzQuNzYsMzQuNjQgQzM0Ljc2LDM1LjgwOCAzNC4wMjcsMzYuODA0IDMzLDM3LjIwNSBMMzMsNDAgTDMxLDQwIEwzMSwzNy4yMDUgQzI5Ljk3MiwzNi44MDMgMjkuMjQsMzUuODA4IDI5LjI0LDM0LjY0IEwyOS4yNCwzNC42NCBaIE0zOSwzMSBMMjUsMzEgTDI1LDQxIEwzOSw0MSBMMzksMzkgTDM3LDM5IEwzNywzNyBMMzksMzcgTDM5LDM1IEwzNywzNSBMMzcsMzMgTDM5LDMzIEwzOSwzMSBaIE0yNywyOSBMMzYuOTk5LDI5IEwzNywyNSBDMzcsMjQuMTM1IDM2LjQyNCwyMy4xNDEgMzUuNDU3LDIyLjM0MSBDMzQuNDQzLDIxLjUwMSAzMy4xNTIsMjEgMzIuMDAzLDIxIEwzMi4wMDEsMjEgQzI5LjYxOCwyMSAyNy4wMDEsMjMuMDkzIDI3LDI1IEwyNywyOSBaIE0zOSwyNSBMMzguOTk5LDI5IEw0MCwyOSBDNDAuNTUzLDI5IDQxLDI5LjQ0OCA0MSwzMCBMNDEsNDIgQzQxLDQyLjU1MiA0MC41NTMsNDMgNDAsNDMgTDI0LDQzIEMyMy40NDcsNDMgMjMsNDIuNTUyIDIzLDQyIEwyMywzMCBDMjMsMjkuNDQ4IDIzLjQ0NywyOSAyNCwyOSBMMjUsMjkgTDI1LDI1IEMyNS4wMDEsMjEuOTcxIDI4LjQ2OSwxOSAzMi4wMDEsMTkgTDMyLjAwMywxOSBDMzMuNjI4LDE5IDM1LjM1MSwxOS42NTcgMzYuNzMyLDIwLjgwMSBDMzguMTc0LDIxLjk5NCAzOS4wMDEsMjMuNTI1IDM5LDI1IEwzOSwyNSBaIE0xNS40ODksNDMuOTUgTDE3LjExLDQyLjc3NyBDMTUuMDI5LDM5LjkwMiAxMy44NTksMzYuNTM4IDEzLjY3NiwzMyBMMTYsMzMgTDE2LDMxIEwxMy42NzgsMzEgQzEzLjg3MSwyNy40ODMgMTUuMDQsMjQuMTQgMTcuMTEsMjEuMjgxIEwxNS40ODksMjAuMTA4IEMxMy4xNzIsMjMuMzExIDExLjg3MywyNy4wNTggMTEuNjc4LDMxIEwxMCwzMSBMMTAsMzMgTDExLjY3NiwzMyBDMTEuODYxLDM2Ljk2MiAxMy4xNiw0MC43MzEgMTUuNDg5LDQzLjk1IEwxNS40ODksNDMuOTUgWiBNNDIuNzQ3LDQ2LjkxOCBDMzkuODgsNDguOTkzIDM2LjUyNyw1MC4xNjIgMzMsNTAuMzUgTDMzLDQ4IEwzMSw0OCBMMzEsNTAuMzUgQzI3LjQ3MSw1MC4xNjIgMjQuMTE4LDQ4Ljk5NCAyMS4yNSw0Ni45MTggTDIwLjA3OCw0OC41MzggQzIzLjI4OSw1MC44NjIgMjcuMDQ5LDUyLjE2MSAzMSw1Mi4zNSBMMzEsNTQgTDMzLDU0IEwzMyw1Mi4zNSBDMzYuOTUxLDUyLjE2IDQwLjcwOSw1MC44NjIgNDMuOTE5LDQ4LjUzOCBMNDIuNzQ3LDQ2LjkxOCBaIE0yMS4yNSwxNy4xNCBDMjQuMTE4LDE1LjA2NCAyNy40NzEsMTMuODk1IDMxLDEzLjcwNyBMMzEsMTYgTDMzLDE2IEwzMywxMy43MDcgQzM2LjUyNywxMy44OTYgMzkuODgsMTUuMDY1IDQyLjc0NywxNy4xNCBMNDMuOTE5LDE1LjUyIEM0MC43MDksMTMuMTk2IDM2Ljk1MSwxMS44OTcgMzMsMTEuNzA3IEwzMywxMCBMMzEsMTAgTDMxLDExLjcwNyBDMjcuMDQ4LDExLjg5NyAyMy4yODksMTMuMTk2IDIwLjA3OCwxNS41MiBMMjEuMjUsMTcuMTQgWiBNNTIuMzE5LDMxIEM1Mi4xMjUsMjcuMDU4IDUwLjgyNiwyMy4zMTEgNDguNTA5LDIwLjEwOCBMNDYuODg3LDIxLjI4MSBDNDguOTU4LDI0LjE0IDUwLjEyNywyNy40ODMgNTAuMzE5LDMxIEw0OCwzMSBMNDgsMzMgTDUwLjMyMiwzMyBDNTAuMTM4LDM2LjUzOCA0OC45NjksMzkuOTAyIDQ2Ljg4Nyw0Mi43NzcgTDQ4LjUwOSw0My45NSBDNTAuODM4LDQwLjczMSA1Mi4xMzYsMzYuOTYyIDUyLjMyMiwzMyBMNTQsMzMgTDU0LDMxIEw1Mi4zMTksMzEgWiBNNDUuMDI2LDIwLjQxNiBMNTEuMTg1LDE0LjI1NiBMNDkuNzcxLDEyLjg0MiBMNDMuNjEyLDE5LjAwMiBMNDUuMDI2LDIwLjQxNiBaIE0xOC45NzEsNDMuNjQyIEwxMi44MTEsNDkuODAyIEwxNC4yMjUsNTEuMjE2IEwyMC4zODYsNDUuMDU2IEwxOC45NzEsNDMuNjQyIFogTTIzLjI0NiwyMS44MzMgTDExLjU4NiwxMC4xNzMgTDEwLjE3MiwxMS41ODcgTDIxLjgzMiwyMy4yNDcgTDIzLjI0NiwyMS44MzMgWiBNNDMuMzAzLDQxLjg5IEw1My44MjYsNTIuNDEzIEw1Mi40MTIsNTMuODI3IEw0MS44ODgsNDMuMzA0IEw0My4zMDMsNDEuODkgWiIvPgogICAgPC9nPgo8L3N2Zz4=;" vertex="1" parent="1">
                    <mxGeometry x="427" y="127" width="37" height="37" as="geometry"/>
                </mxCell>
                <mxCell id="29" value="" style="shape=image;verticalLabelPosition=bottom;labelBackgroundColor=default;verticalAlign=top;aspect=fixed;imageAspect=0;image=data:image/svg+xml,PHN2ZyB4bWxuczp4bGluaz0iaHR0cDovL3d3dy53My5vcmcvMTk5OS94bGluayIgeG1sbnM9Imh0dHA6Ly93d3cudzMub3JnLzIwMDAvc3ZnIiB2ZXJzaW9uPSIxLjEiIHZpZXdCb3g9IjAgMCA0OCA0OCIgaGVpZ2h0PSI0OHB4IiB3aWR0aD0iNDhweCI+CiAgICA8dGl0bGU+SWNvbi1SZXNvdXJjZS9BbmFseXRpY3MvUmVzX0FXUy1HbHVlX0RhdGEtUXVhbGl0eV80ODwvdGl0bGU+CiAgICA8ZyBmaWxsLXJ1bGU9ImV2ZW5vZGQiIGZpbGw9Im5vbmUiIHN0cm9rZS13aWR0aD0iMSIgc3Ryb2tlPSJub25lIiBpZD0iSWNvbi1SZXNvdXJjZS9BbmFseXRpY3MvUmVzX0FXUy1HbHVlX0RhdGEtUXVhbGl0eV80OCI+CiAgICAgICAgPHBhdGggZmlsbD0iIzhDNEZGRiIgaWQ9IkZpbGwtMSIgZD0iTTMwLjI4MywyNC4zNzUgTDMxLjg0NSwyNS42MjQgTDI3Ljg0NSwzMC42MjQgQzI3LjY0OCwzMC44NyAyNy4zNTgsMzEgMjcuMDYzLDMxIEMyNi44NzMsMzEgMjYuNjc5LDMwLjk0NSAyNi41MSwzMC44MzIgTDIzLjUxLDI4LjgzMiBMMjQuNjE5LDI3LjE2NyBMMjYuODU2LDI4LjY1OSBMMzAuMjgzLDI0LjM3NSBaIE00My40OTEsNDMuNDM2IEM0My4wMDYsNDMuOTIzIDQyLjI3Miw0NC4yMzYgNDEuODE5LDQzLjc4MyBMMzUuMzU2LDM3LjE2OCBDMzYuMDQzLDM2LjYxMiAzNi42NjksMzUuOTg1IDM3LjIyNSwzNS4yOTggTDQzLjg0Niw0MS43NDEgQzQ0LjI4Niw0Mi4xODEgNDQsNDIuOTI3IDQzLjQ5MSw0My40MzYgTDQzLjQ5MSw0My40MzYgWiBNMTcuMDU0LDI3LjQ3MiBDMTcuMDU0LDIxLjY5OCAyMS43NTMsMTcgMjcuNTI3LDE3IEMzMy4zMDIsMTcgMzgsMjEuNjk4IDM4LDI3LjQ3MiBDMzgsMzMuMjQ3IDMzLjMwMiwzNy45NDQgMjcuNTI3LDM3Ljk0NCBDMjEuNzUzLDM3Ljk0NCAxNy4wNTQsMzMuMjQ3IDE3LjA1NCwyNy40NzIgTDE3LjA1NCwyNy40NzIgWiBNNDUuMjUsNDAuMzE3IEwzOC4zNjcsMzMuNjE4IEMzOS40MDEsMzEuODAyIDQwLDI5LjcwNyA0MCwyNy40NzIgQzQwLDIwLjU5NSAzNC40MDUsMTUgMjcuNTI3LDE1IEMyMC42NDksMTUgMTUuMDU0LDIwLjU5NSAxNS4wNTQsMjcuNDcyIEMxNS4wNTQsMzQuMzQ5IDIwLjY0OSwzOS45NDQgMjcuNTI3LDM5Ljk0NCBDMjkuNzY0LDM5Ljk0NCAzMS44NTksMzkuMzQ1IDMzLjY3NiwzOC4zMSBMNDAuMzk3LDQ1LjE4OSBDNDAuOTM1LDQ1LjcyOCA0MS42MjgsNDUuOTkyIDQyLjM1Miw0NS45OTIgQzQzLjIyNyw0NS45OTIgNDQuMTQ5LDQ1LjYwNiA0NC45MDUsNDQuODUgQzQ2LjI5Niw0My40NTkgNDYuNDQ4LDQxLjUxNSA0NS4yNSw0MC4zMTcgTDQ1LjI1LDQwLjMxNyBaIE0yNy41MjcsMzQuNjg5IEMyMy40OCwzNC42ODkgMjAuMzA5LDMxLjUxOSAyMC4zMDksMjcuNDcyIEMyMC4zMDksMjMuNDI1IDIzLjQ4LDIwLjI1NCAyNy41MjcsMjAuMjU0IEMzMS41NzQsMjAuMjU0IDM0Ljc0NSwyMy40MjUgMzQuNzQ1LDI3LjQ3MiBDMzQuNzQ1LDMxLjUxOSAzMS41NzQsMzQuNjg5IDI3LjUyNywzNC42ODkgTDI3LjUyNywzNC42ODkgWiBNMjcuNTI3LDE4LjI1NCBDMjIuMzU4LDE4LjI1NCAxOC4zMDksMjIuMzAzIDE4LjMwOSwyNy40NzIgQzE4LjMwOSwzMi42NDEgMjIuMzU4LDM2LjY4OSAyNy41MjcsMzYuNjg5IEMzMi42OTYsMzYuNjg5IDM2Ljc0NSwzMi42NDEgMzYuNzQ1LDI3LjQ3MiBDMzYuNzQ1LDIyLjMwMyAzMi42OTYsMTguMjU0IDI3LjUyNywxOC4yNTQgTDI3LjUyNywxOC4yNTQgWiBNMTYuMDY0LDQgQzIzLjY4Nyw0IDI5LDYuMTA3IDI5LDggQzI5LDkuOTY2IDI0LjUzNSwxMiAxNy4wNjQsMTIgQzkuMzY1LDEyIDQsOS44OTIgNCw4IEM0LDYuMDMzIDguNTEyLDQgMTYuMDY0LDQgTDE2LjA2NCw0IFogTTE2LjEzNSw0NCBDOC41MzksNDQgNCw0MS44NzggNCwzOS44MjggTDQsMzIuNTA5IEM2LjI4OCwzNC4zNjcgMTAuMzI5LDM1LjY0NiAxNS4wMzksMzUuNzY4IEwxNS4wOSwzMy43NjkgQzguNTU0LDMzLjYwMSA0LDMxLjEyIDQsMjkgTDQsMjIuNDY1IEM1LjkyLDIzLjk3MSA5LjA5MywyNS4wNTEgMTIuOTgxLDI1LjM3NSBMMTMuMTQ3LDIzLjM4MiBDNy40OTcsMjIuOTEyIDQsMjAuNzQxIDQsMTkgTDQsMTEuMTkzIEM2Ljc4NSwxMy4xMDQgMTIuMDU1LDE0IDE3LjA2NCwxNCBDMjIuNDQxLDE0IDI2LjY2OCwxMi45OTIgMjksMTEuMzE2IEwyOSwxMyBMMzEsMTMgTDMxLDggQzMxLDMuODc3IDIzLjI1OCwyIDE2LjA2NCwyIEM3LjY1MiwyIDIsNC40MTEgMiw4IEwyLDM5LjgyOCBDMiw0My41MiA3LjY4LDQ2IDE2LjEzNSw0NiBDMjIuMjI3LDQ2IDI3LjQxOSw0NC42OCAyOS42ODQsNDIuNTU1IEwyOC4zMTUsNDEuMDk2IEMyNi40NjUsNDIuODMzIDIxLjU2OSw0NCAxNi4xMzUsNDQgTDE2LjEzNSw0NCBaIi8+CiAgICA8L2c+Cjwvc3ZnPg==;" vertex="1" parent="1">
                    <mxGeometry x="430" y="196" width="38" height="38" as="geometry"/>
                </mxCell>
                <mxCell id="30" value="" style="shape=image;verticalLabelPosition=bottom;labelBackgroundColor=default;verticalAlign=top;aspect=fixed;imageAspect=0;image=data:image/svg+xml,PHN2ZyB4bWxuczp4bGluaz0iaHR0cDovL3d3dy53My5vcmcvMTk5OS94bGluayIgeG1sbnM9Imh0dHA6Ly93d3cudzMub3JnLzIwMDAvc3ZnIiB2ZXJzaW9uPSIxLjEiIHZpZXdCb3g9IjAgMCA0OCA0OCIgaGVpZ2h0PSI0OHB4IiB3aWR0aD0iNDhweCI+CiAgICA8dGl0bGU+SWNvbi1SZXNvdXJjZS9OZXR3b3JraW5nLWFuZC1Db250ZW50LURlbGl2ZXJ5L1Jlc19BbWF6b24tVlBDX1ZpcnR1YWwtcHJpdmF0ZS1jbG91ZC1WUENfNDg8L3RpdGxlPgogICAgPGcgZmlsbC1ydWxlPSJldmVub2RkIiBmaWxsPSJub25lIiBzdHJva2Utd2lkdGg9IjEiIHN0cm9rZT0ibm9uZSIgaWQ9Ikljb24tUmVzb3VyY2UvTmV0d29ya2luZy1hbmQtQ29udGVudC1EZWxpdmVyeS9SZXNfQW1hem9uLVZQQ19WaXJ0dWFsLXByaXZhdGUtY2xvdWQtVlBDXzQ4Ij4KICAgICAgICA8cGF0aCBmaWxsPSIjOEM0RkZGIiBpZD0iRmlsbC0xIiBkPSJNNDAsMjUuOTc2ODQ0IEwzNi40OTksMjQuNTA3ODQ0IEwzNi40OTksMzguODc3ODQ0IEMzOS45MDYsMzguMTQ3ODQ0IDM5Ljk5OCwzNC4xNzk4NDQgNDAsMzMuOTk0ODQ0IEw0MCwyNS45NzY4NDQgWiBNMzQuNDk5LDM4LjkyMjg0NCBMMzQuNDk5LDI0LjUwNzg0NCBMMzEsMjUuOTc2ODQ0IEwzMSwzNC4wMDM4NDQgQzMxLjAwOCwzNC40NjU4NDQgMzEuMTgzLDM4LjMzODg0NCAzNC40OTksMzguOTIyODQ0IEwzNC40OTksMzguOTIyODQ0IFogTTM1LjExMiwyMi4wODE4NDQgQzM1LjM1OCwyMS45NzY4NDQgMzUuNjM4LDIxLjk3Nzg0NCAzNS44ODYsMjIuMDgwODQ0IEw0MS4zODcsMjQuMzg5ODQ0IEM0MS43NTksMjQuNTQ1ODQ0IDQyLDI0LjkwODg0NCA0MiwyNS4zMTE4NDQgTDQyLDM0LjAwMzg0NCBDNDEuOTc4LDM2LjQzMDg0NCA0MC41NjIsNDEuMDAzODQ0IDM1LjM3LDQxLjAwMzg0NCBDMzAuMzkzLDQxLjAwMzg0NCAyOS4wMjYsMzYuNDMxODQ0IDI5LDM0LjAxNDg0NCBMMjksMjUuMzExODQ0IEMyOSwyNC45MDg4NDQgMjkuMjQxLDI0LjU0NTg0NCAyOS42MTMsMjQuMzg5ODQ0IEwzNS4xMTIsMjIuMDgxODQ0IFogTTQ0LDIyLjc5MTg0NCBMMzUuNDkyLDE5LjA5MTg0NCBMMjYuOTk5ODkxMiwyMi42Njc4NDQgTDI2Ljk5OTg5MTIsMzMuMDI0ODQ0IEMyNi45OTksMzMuMDg5ODQ0IDI2Ljk2MywzOC4wMDg4NDQgMjkuODA3LDQwLjg5Mzg0NCBDMzEuMTg3LDQyLjI5Mzg0NCAzMy4wNTksNDMuMDAzODQ0IDM1LjM3LDQzLjAwMzg0NCBDNDMuODA4LDQzLjAwMzg0NCA0My45OTYsMzMuNDI0ODQ0IDQ0LDMzLjAxNzg0NCBMNDQsMjIuNzkxODQ0IFogTTQ2LDIyLjEzNTg0NCBMNDYsMzMuMDI0ODQ0IEM0NS45NzMsMzcuMTcyODQ0IDQzLjcxNiw0NS4wMDM4NDQgMzUuMzcsNDUuMDAzODQ0IEMzMi40OTgsNDUuMDAzODQ0IDMwLjE0NSw0NC4wODk4NDQgMjguMzczLDQyLjI4Nzg0NCBDMjQuOTQxLDM4Ljc5Njg0NCAyNC45OTYsMzMuMjQyODQ0IDI1LDMzLjAwNzg0NCBMMjUsMjIuMDAzODQ0IEMyNSwyMS42MDE4NDQgMjUuMjQxLDIxLjIzNzg0NCAyNS42MTIsMjEuMDgxODQ0IEwzNS4xMTEsMTcuMDgxODQ0IEMzNS4zNjMsMTYuOTc1ODQ0IDM1LjY0NywxNi45Nzc4NDQgMzUuODk3LDE3LjA4Njg0NCBMNDUuMzk4LDIxLjIxODg0NCBDNDUuNzY0LDIxLjM3Nzg0NCA0NiwyMS43Mzc4NDQgNDYsMjIuMTM1ODQ0IEw0NiwyMi4xMzU4NDQgWiBNMTEsMzAuMDAzODQ0IEwyMiwzMC4wMDM4NDQgTDIyLDMyLjAwMzg0NCBMMTEsMzIuMDAzODQ0IEM2LjIxNiwzMi4wMDM4NDQgMi4yNzEsMjguNDgyODQ0IDIuMDIsMjMuOTg3ODQ0IEMyLjAwMiwyMy44MTI4NDQgMiwyMy41OTg4NDQgMiwyMy4zODQ4NDQgQzIsMTguMDg1ODQ0IDUuNjU0LDE2LjAzNzg0NCA3LjkxOSwxNS4yNzc4NDQgQzcuOTAyLDE1LjA2Mjg0NCA3Ljg5MSwxNC44NDI4NDQgNy44OTEsMTQuNjI1ODQ0IEM3Ljg5MSwxMC4wMzg4NDQgMTAuNjU4LDUuNzAwODQ0MDQgMTQuNjIxLDQuMDc4ODQ0MDQgQzE5LjU4LDIuMDQ5ODQ0MDQgMjUuMjM1LDIuOTM2ODQ0MDQgMjguNjk1LDYuMjg0ODQ0MDQgQzI5LjcxOCw3LjI4MTg0NDA0IDMwLjYwNCw4LjU5NTg0NDA0IDMxLjM0MywxMC4yMDU4NDQgQzMyLjI5OSw5LjQyMTg0NDA0IDMzLjM5Miw5LjAwMzg0NDA0IDM0LjUyMyw5LjAwMzg0NDA0IEMzNy4yMzQsOS4wMDM4NDQwNCA0MC4yODEsMTEuMjk1ODQ0IDQwLjksMTUuMDYxODQ0IEM0My4wNjksMTUuMzQzODQ0IDQ0LjkzNiwxNi42Mzg4NDQgNDUuODk2LDE4LjU4MTg0NCBMNDQuMTA0LDE5LjQ2ODg0NCBDNDMuMzQsMTcuOTI0ODQ0IDQxLjgwNiwxNy4wMDM4NDQgNDAsMTcuMDAzODQ0IEMzOS40NzEsMTcuMDAzODQ0IDM5LjAzMywxNi41OTA4NDQgMzkuMDAyLDE2LjA2Mjg0NCBDMzguODA3LDEyLjc2MTg0NCAzNi4yNzUsMTEuMDAzODQ0IDM0LjUyMywxMS4wMDM4NDQgQzMzLjU1LDExLjAwMzg0NCAzMi41ODIsMTEuNTczODQ0IDMxLjc5NywxMi42MDc4NDQgQzMxLjU3NSwxMi44OTg4NDQgMzEuMjE3LDEzLjA0OTg0NCAzMC44NTIsMTIuOTkyODQ0IEMzMC40OSwxMi45Mzc4NDQgMzAuMTg3LDEyLjY5MDg0NCAzMC4wNjIsMTIuMzQ3ODQ0IEMyOS4zMjcsMTAuMzQ1ODQ0IDI4LjM5OCw4Ljc4ODg0NDA0IDI3LjMwMiw3LjcxOTg0NDA0IEMyNC40MDcsNC45MTY4NDQwNCAxOS42MTQsNC4xOTU4NDQwNCAxNS4zNzksNS45Mjk4NDQwNCBDMTEuNzc1LDcuNDA0ODQ0MDQgOS44OTEsMTEuNDIwODQ0IDkuODkxLDE0LjYyNTg0NCBDOS44OTEsMTUuMDI1ODQ0IDkuOTQ3LDE1LjUwMjg0NCA5Ljk5MywxNS44ODU4NDQgQzEwLjA1MywxNi4zODU4NDQgOS43MywxNi44NTI4NDQgOS4yNCwxNi45NzQ4NDQgQzcuMjgzLDE3LjQ1ODg0NCA0LDE4LjkzNjg0NCA0LDIzLjM4NDg0NCBDNCwyMy41MzQ4NDQgMy45OTgsMjMuNjg0ODQ0IDQuMDEzLDIzLjgzNTg0NCBDNC4yMDksMjcuMzExODQ0IDcuMjc2LDMwLjAwMzg0NCAxMSwzMC4wMDM4NDQgTDExLDMwLjAwMzg0NCBaIi8+CiAgICA8L2c+Cjwvc3ZnPg==;" vertex="1" parent="1">
                    <mxGeometry x="52.5" y="51" width="38" height="38" as="geometry"/>
                </mxCell>
                <mxCell id="31" value="" style="shape=image;verticalLabelPosition=bottom;labelBackgroundColor=default;verticalAlign=top;aspect=fixed;imageAspect=0;image=data:image/svg+xml,PHN2ZyB4bWxuczp4bGluaz0iaHR0cDovL3d3dy53My5vcmcvMTk5OS94bGluayIgeG1sbnM9Imh0dHA6Ly93d3cudzMub3JnLzIwMDAvc3ZnIiB2ZXJzaW9uPSIxLjEiIHZpZXdCb3g9IjAgMCA0OCA0OCIgaGVpZ2h0PSI0OHB4IiB3aWR0aD0iNDhweCI+CiAgICA8dGl0bGU+SWNvbi1SZXNvdXJjZS9TdG9yYWdlL1Jlc19BbWF6b24tU2ltcGxlLVN0b3JhZ2UtU2VydmljZV9TMy1Pbi1PdXRwb3N0c180ODwvdGl0bGU+CiAgICA8ZyBmaWxsLXJ1bGU9ImV2ZW5vZGQiIGZpbGw9Im5vbmUiIHN0cm9rZS13aWR0aD0iMSIgc3Ryb2tlPSJub25lIiBpZD0iSWNvbi1SZXNvdXJjZS9TdG9yYWdlL1Jlc19BbWF6b24tU2ltcGxlLVN0b3JhZ2UtU2VydmljZV9TMy1Pbi1PdXRwb3N0c180OCI+CiAgICAgICAgPHBhdGggZmlsbD0iIzdBQTExNiIgaWQ9IkZpbGwtNCIgZD0iTTQyLjQxNiwyMi4zMDUgQzQyLjIwNiwyMS40NDQgMzcuODUzLDE5LjQ4NyAzMS40NjEsMTkuNDg3IEMyNS4wNjksMTkuNDg3IDIwLjcxNywyMS40NDQgMjAuNTA3LDIyLjMwNSBMMjAuNTE1LDIyLjM2MyBDMjAuODU4LDIzLjIyOCAyNS4xNTQsMjQuNzU0IDMxLjQ2MSwyNC43NTQgQzM3LjcwNCwyNC43NTQgNDEuOTcxLDIzLjI1OSA0Mi4zOTEsMjIuMzkgTDQyLjM5NywyMi4zMzggTDQyLjQxMSwyMi4zNCBMNDIuNDE2LDIyLjMwNSBaIE00Mi4wMzcsMjUuMDE1IEMzOS4xNiwyNi4zNDMgMzQuMzUzLDI2Ljc1NCAzMS40NjEsMjYuNzU0IEMyOC41NjIsMjYuNzU0IDIzLjc0NSwyNi4zNDEgMjAuODcxLDI1LjAwOCBMMjEuOTAxLDMyLjY1NiBDMjIuNjcyLDMyLjkzOSAyMy4zOTUsMzMuMzk2IDI0LjAzLDM0LjAyNCBDMjQuMzk2LDM0LjM4NiAyNC43MTcsMzQuNzk5IDI0Ljk4OSwzNS4yNiBDMjUuNjAxLDM0Ljk4OCAyNi4yOTIsMzQuOTM1IDI2Ljk1OSwzNS4xMzEgQzI4LjA2NCwzNS40NTkgMjguODQsMzYuMzcxIDI5LjExNCwzNy42MzEgQzI5LjU2MiwzNy43NzggMzAuMDA2LDM3Ljk4NiAzMC40LDM4LjIzNiBDMzEuNzY4LDM5LjEwMSAzMi40NjEsNDAuMjM0IDMyLjQ2MSw0MS42MDQgQzMyLjQ2MSw0Mi41MjkgMzIuMjUsNDMuMzIzIDMxLjg1Myw0My45OTEgQzMzLjY5NSw0My45NjUgMzUuNTE2LDQzLjc3MSAzNy4wMTUsNDMuNDI1IEMzNy42MzEsNDMuMjgzIDM4LjE3NCw0My4xMiAzOC42MzEsNDIuOTM5IEMzOS4zMzYsNDIuNjYgMzkuNjMxLDQyLjQxMyAzOS43MDksNDIuMzEzIEMzOS43MSw0Mi4yOTQgMzkuNzEzLDQyLjI3NSAzOS43MTUsNDIuMjU2IEw0MC43ODUsMzQuMzA1IEMzNy44ODcsMzMuMzg0IDM0LjIxNywzMS43MjYgMzIuMjQsMzAuNzk3IEMzMi4wMjEsMzAuOTIzIDMxLjc3LDMxIDMxLjUsMzEgQzMwLjY3MywzMSAzMCwzMC4zMjcgMzAsMjkuNSBDMzAsMjguNjczIDMwLjY3MywyOCAzMS41LDI4IEMzMi4xMDQsMjggMzIuNjI0LDI4LjM2MiAzMi44NjEsMjguODc5IEMzNC40MywyOS42MTkgMzguMTQxLDMxLjMyNCA0MS4wNTcsMzIuMjkgTDQyLjAzNywyNS4wMTUgWiBNMzAuNDYxLDQxLjYwNCBDMzAuNDYxLDQxLjEyOCAzMC4zMjYsNDAuNTU2IDI5LjMzLDM5LjkyNSBDMjguOTM4LDM5LjY3NyAyOC40NTcsMzkuNDg3IDI4LjA0MiwzOS40MTcgQzI3LjUzNiwzOS4zMzEgMjcuMTg0LDM4Ljg4IDI3LjIxLDM4LjM3OSBDMjcuMTQzLDM3LjY3NiAyNi44NCwzNy4xODEgMjYuMzkxLDM3LjA0OSBDMjYuMDI5LDM2Ljk0MyAyNS42NTUsMzcuMDggMjUuNDExLDM3LjQwNyBDMjUuMTg5LDM3LjcwMSAyNC44MjEsMzcuODQ2IDI0LjQ2MiwzNy43OTUgQzI0LjA5OSwzNy43NDEgMjMuNzk0LDM3LjQ5MSAyMy42NywzNy4xNDQgQzIzLjQyNSwzNi40NjEgMjMuMDczLDM1Ljg4OSAyMi42MjUsMzUuNDQ3IEMyMi4yMjIsMzUuMDQ5IDIxLjMwMSwzNC4zMTQgMTkuOTk2LDM0LjMxNCBDMTkuNTM3LDM0LjMxNCAxOS4wMzEsMzQuNDA1IDE4LjQ4MywzNC42MzMgQzE3LjMwNSwzNS4xMjQgMTYuMzQ2LDM2LjU5OCAxNi4zNDYsMzcuOTE5IEMxNi4zNDYsMzguMDcxIDE2LjM1NCwzOC4yMiAxNi4zNzMsMzguMzY2IEMxNi40MzYsMzguODY3IDE2LjExNCwzOS4zMzcgMTUuNjI0LDM5LjQ2IEMxNC44MiwzOS42NjIgMTMuODYyLDQwLjIxMSAxMy44NjIsNDEuNjgxIEMxMy44NjIsNDIuODc4IDE0LjUyMyw0My41MzQgMTUuMDc4LDQzLjg3NSBDMTUuMjEyLDQzLjk1NyAxNS4zNjgsNDQgMTUuNTMxLDQ0IEwyOC4xMjIsNDQuMDEzIEwyOC4xMjcsNDQuMDEzIEMyOC41MTgsNDQuMDExIDMwLjQ2MSw0My44NzkgMzAuNDYxLDQxLjYwNCBMMzAuNDYxLDQxLjYwNCBaIE0xNC4zNDgsMzcuNzg2IEMxNC40MDYsMzUuNzAyIDE1LjgzNCwzMy41NzEgMTcuNzE0LDMyLjc4NyBDMTguNDE4LDMyLjQ5NCAxOS4xMzQsMzIuMzU1IDE5Ljg0LDMyLjMzNCBMMTguNTQzLDIyLjcwOSBMMTguNTQ0LDIyLjcwOSBDMTguNTQzLDIyLjcwOCAxOC41NDMsMjIuNzA3IDE4LjU0MywyMi43MDUgTDE4LjUxMSwyMi40NTkgQzE4LjUwNSwyMi40MTYgMTguNTAyLDIyLjM3MyAxOC41MDIsMjIuMzI5IEMxOC41MDIsMjAuOTU0IDE5LjkzMywxOS44MjUgMjIuMDc0LDE5IEwyMiwxOSBMMjIsNSBDMjIsNC40NDkgMjEuNTUyLDQgMjEsNCBMNSw0IEM0LjQ0OCw0IDQsNC40NDkgNCw1IEw0LDQwIEM0LDQwLjU1MiA0LjQ0OCw0MSA1LDQxIEwxMS45MDksNDEgQzEyLjExMSwzOS41MjMgMTIuOTgsMzguMzggMTQuMzQ4LDM3Ljc4NiBMMTQuMzQ4LDM3Ljc4NiBaIE0xNS41MjksNDYgQzE0Ljk5Niw0NS45OTkgMTQuNDc5LDQ1Ljg1NCAxNC4wMzIsNDUuNTc5IEMxMy40MDEsNDUuMTkyIDEyLjQ0NCw0NC4zODkgMTIuMDQ5LDQzIEw4LDQzIEw4LDQ2IEw2LDQ2IEw2LDQzIEw1LDQzIEMzLjM0Niw0MyAyLDQxLjY1NSAyLDQwIEwyLDUgQzIsMy4zNDYgMy4zNDYsMiA1LDIgTDIxLDIgQzIyLjY1NCwyIDI0LDMuMzQ2IDI0LDUgTDI0LDE4LjM4OSBDMjYuMjM0LDE3LjgwNyAyOC44ODcsMTcuNDg3IDMxLjQ2MSwxNy40ODcgQzM3LjY5MywxNy40ODcgNDQuNDIxLDE5LjMzOSA0NC40MjEsMjIuMzI5IEM0NC40MjEsMjIuMzczIDQ0LjQxOCwyMi40MTYgNDQuNDEyLDIyLjQ1OSBMNDQuMzgsMjIuNzA1IEM0NC4zNzUsMjIuNzQ3IDQ0LjM2NywyMi43ODggNDQuMzU2LDIyLjgyOSBDNDQuMzU0LDIyLjgzOCA0NC4zNDksMjIuODQ1IDQ0LjM0NywyMi44NTMgTDQzLjMxMiwzMC41MjkgQzQ1LjAwOCwzMS41MTggNDUuODE5LDMyLjMxNCA0NS45NzQsMzMuMTM3IEM0Ni4wNTgsMzMuNTg2IDQ1Ljk0MSwzNC4wMjUgNDUuNjQ4LDM0LjM3NCBDNDUuMzA4LDM0Ljc4IDQ0Ljc5NiwzNC45ODEgNDQuMDQ4LDM0Ljk4MSBDNDMuNjc0LDM0Ljk4MSA0My4yMzMsMzQuOTI1IDQyLjczMywzNC44MjUgTDQxLjcwNCw0Mi40NjkgQzQxLjY2Myw0My40MTggNDAuODc3LDQ0LjIwMiAzOS4zNjYsNDQuNzk5IEMzOC44MTYsNDUuMDE3IDM4LjE3Niw0NS4yMSAzNy40NjQsNDUuMzczIEMzNS43MTYsNDUuNzc4IDMzLjU4NCw0NiAzMS40NjEsNDYgTDI4LjEzMSw0NiBMMTUuNTI5LDQ2IFogTTgsMTkgTDE5LDE5IEwxOSwxNyBMOCwxNyBMOCwxOSBaIE04LDI0IEwxNiwyNCBMMTYsMjIgTDgsMjIgTDgsMjQgWiBNOCwxNCBMMTksMTQgTDE5LDEyIEw4LDEyIEw4LDE0IFoiLz4KICAgIDwvZz4KPC9zdmc+;" vertex="1" parent="1">
                    <mxGeometry x="52.5" y="126" width="38" height="38" as="geometry"/>
                </mxCell>
                <mxCell id="32" value="" style="shape=image;verticalLabelPosition=bottom;labelBackgroundColor=default;verticalAlign=top;aspect=fixed;imageAspect=0;image=data:image/png,iVBORw0KGgoAAAANSUhEUgAAADAAAAAwCAYAAABXAvmHAAAAAXNSR0IArs4c6QAAAERlWElmTU0AKgAAAAgAAYdpAAQAAAABAAAAGgAAAAAAA6ABAAMAAAABAAEAAKACAAQAAAABAAAAMKADAAQAAAABAAAAMAAAAADbN2wMAAAIIklEQVRoBe2Ze3CU1RXAz90kG4KJMYkU27GwsR2frbaj09J2plY7EhEMgTY+Z/xHxagFJQ9tLdRtfSEk2GHG0ioy0xmxIxmFrCDiCwe1UkdGHRR1bKdDsVIsJpMmEHaT3dvf+XK/dXezSUN2k7Qdz8zZ+33nO+fcc+7jnHPvinwOkzsC5j91f3+tPa3QyLfhO9eKVIuVGWJkOu8lDiFLF/gpyjr51gnPJ9bInoSVtwqD8kZju+nj+7hAVgdaF9qZEpcGerwcrM6x5z4cesEE5PGeItkYbjexHPWliac5EK63wdKYrIDjZjDoOA8xqjsxYjdD/V6Blf39Ih/bYjlcUSFHKrok8U9mIw7GYjItYeRkeKoZ/XMw+jzkzkVPwOk6wMwsb9lsHnHvOTdJB8I/sFPKyuV5jPweWrFH2ul87YxiefWydqPvY4J7F9iqYFzmMQg6o7Ocksd7vylXhcMmMSalKUJJB9rm2xUYfzvf9gWs/LgxYt5I4cvLY1utrWUGdPRPpONlTR3mnlwV+1PLYHvrXQJGLhsP49XQpoiJ0NGP9Jn+rtE2V0g6gKKQKksE5KC24wV0+LHTfWo++kh1wNNnB+T3q+ttZT6UZ+p4oM6G2OTtmfRc3gszhY2R8xMxeWdVnV1ZHJX1S7aZf2XyHOt766X2dPTeELdyA7KaP/IGyU3cOt+yLD14gd8fuucoxB10vgPG3YGA7O0+Ww6OFD1W1NvyogEJ2bh8Q8MoWmejy18umgPWgTep/uYONOcISQW+A6qU5xr0toDng5mzRBqQf4CHQc2wGgr9rDyN51IwE/ZjaocNSGvzk2Zfal+ZjMf6nmmcJ48T23nYft9cWxEskrmMosbvM8EzwJPAL4PDQTcfPmDm3meD7WGEtjd2mD3DMedKz+qAr/RnW43WOI869Mhs8JL4gJQVBqQ0kZAyngsKCqWX8NsTG5De2yOmx5ef0Fan1Z/aCe04x85GnIFj1R0O20Dpm/IX5BrcMhSdsUSU7GtkDsvp6Z5uuTb8kjmqulvr7Bwy2m94tITXhts2m2eV7snEZD2PF4Nbe7vluqTM4P78LfqrlXdIHlDimOFdb8OHkN9AGV6megjJSzH+Sh5PYF9cVVoutyp9zRx7PMbr8gyB1ZQvGx6st14AwOEmaFeAJ4BXH1cut9CK07mBx5C+K+TVAVcqb0VvFWeIJa7DZu2IQLBIW6BFDe0v9oyqxLkncWQb9BOPRGWx55jxHFDe6/WHmfNkCsSTqYIUUbrCEAdW1tmvDH4a42/AK8e11lnsOqzAgudaIuZh2hfRWtkXlVtxSEt2obhrpdESXgi1i51jOvLbWSbrnEzV0RjGm0EZSvWVyq8wxAGm8rGVl1gNlWOC5k3mFTUY4em0d6kSjLxTW6LWL7R19Ok4+UzLJvNac8TshKoJ9Is49itl4VuaDO93Qz6J2Xj2toh5VXkUhjgA7VuBInm3rc4u/3Wtne5xHeMPWVhLhj+BhzDoDjVSVbiOf6508DWW2Y1KVyAU6xJ7HTyEsT9t6TAqnymzi3CtupOAQ4Pgh1AIm1CwwJE1y+7ifQftbqZubx8nsvBT5oj7PunNEAdYd4bDzXexTDdfDcZPzWKlZluvlEDBBRxM9mfhmRBS1jyAQX+k94UajyUqF7GGv8MGO4PloKXEKWC5QwkUShHPHkxEHlhday8mZ6z180BWB3yD3HWIhqxk2NJven6unCZl0aNSOrVKPvL5JT0PVGtZkZIHdGNqHtC6aIWGy9hgHqhUeZcHqm9uN71eHjBeHtBPmgdU5n4Nyxj/KM8aSj3IuoT8j2Np2UtbkJuL4mUDVtYUGNnHewWzt4hZfIjnzpKgzDzaL0u9iKN5IEE1S6bWDV/cLw/Ggp6MhlLNAw+DnyIT0vDrIliEGZgPPWsUUvrYYbLzwNgtH5Sc9DygZ4BcnXB5YBd6Jj4PsNMeaopIgxHDnvvvhyGb2Jm8k6R1R2rKHo0rkxFGs5USGjW+T8p+hYjyDngPWLOm3up5d2RID6PjUk67MBryDRkyA8GYTIkVy09YSo0wfclndG0nrcb9A4Szw/D0BYOydEm74X53EEYbRvtinv5foie/YZR7oGjzZtPW1CEnswlmEbvvw7SXwIOgJp2zwRqMX0h7dZxzMe1nMMowisBNKpRrOT1sJvY2cYdXUXpVoXamEaogINWmQI5niZUm4lIa65fk6CuPhlGOis/h4EUu6aSV08hdmKS7clrlmDnvPspLbrwzeHcqXUtwleH9bn1nyaSV08M6oMyZ4G4p9KZiRNAwyqXWYzB9FYNWp5bTGKrl9FLww8xymhuOP0A/BWNbU8vpFJk/40xaOQ3/IMD0P3krkS0K+T6NW5vPwUp1IKYWeyX0uJkusmq2Pc6pj+ajm88cMPK2KqT8bciH4uF0mBJZpt/YjHp8zBmSm5jCIczm0SuRNv4KmmGK5S7OAxr38wJtC+w5RJR7UXYJGGeTL8+H4mQiU2Wszeto1oLqmB4ZN9qEdAwkZKeLQJBGB79bZIu6D8jXuZKfjYTW7rOcZBe55fqmzeaJ0WkamSvNAWVdtcB+jf8OdaTmganf/0pwfh/afq7JD/BBD/Z9zJwe/PVAUkLInAZdE2AI2llgEPShB571gQFZ1bjF/N0n5tqmGpimS/8O4h8Vvd6rAc8DvWu/NKaRX/DDuyd9GSe3DZC0xuPmelgHUm3bWG8L/haT02AOMYozGfMv0JZg4VRoejHbxax1cb7rZHl0YfAnxUWyV8+3qXo+f/5/HIF/A9yVsRGOjvE6AAAAAElFTkSuQmCC;" vertex="1" parent="1">
                    <mxGeometry x="220" y="125" width="38" height="38" as="geometry"/>
                </mxCell>
                <mxCell id="34" value="" style="shape=image;verticalLabelPosition=bottom;labelBackgroundColor=default;verticalAlign=top;aspect=fixed;imageAspect=0;image=data:image/svg+xml,PHN2ZyB4bWxuczp4bGluaz0iaHR0cDovL3d3dy53My5vcmcvMTk5OS94bGluayIgeG1sbnM9Imh0dHA6Ly93d3cudzMub3JnLzIwMDAvc3ZnIiB2ZXJzaW9uPSIxLjEiIHZpZXdCb3g9IjAgMCA0OCA0OCIgaGVpZ2h0PSI0OHB4IiB3aWR0aD0iNDhweCI+CiAgICA8dGl0bGU+SWNvbi1SZXNvdXJjZS9BbmFseXRpY3MvUmVzX0FXUy1HbHVlX0FXUy1HbHVlLWZvci1SYXlfNDg8L3RpdGxlPgogICAgPGcgZmlsbC1ydWxlPSJldmVub2RkIiBmaWxsPSJub25lIiBzdHJva2Utd2lkdGg9IjEiIHN0cm9rZT0ibm9uZSIgaWQ9Ikljb24tUmVzb3VyY2UvQW5hbHl0aWNzL1Jlc19BV1MtR2x1ZV9BV1MtR2x1ZS1mb3ItUmF5XzQ4Ij4KICAgICAgICA8cGF0aCBmaWxsPSIjOEM0RkZGIiBpZD0iRmlsbC0xIiBkPSJNNDEsNDQgQzM5LjM0Niw0NCAzOCw0Mi42NTQgMzgsNDEgQzM4LDM5LjM0NiAzOS4zNDYsMzggNDEsMzggQzQyLjY1NCwzOCA0NCwzOS4zNDYgNDQsNDEgQzQ0LDQyLjY1NCA0Mi42NTQsNDQgNDEsNDQgTDQxLDQ0IFogTTI4LjEwNywzMS4xMDcgTDI3LjA0NiwyOS45MTcgQzI2LjcyLDI5LjU1MSAyNi4xNzcsMjkuNDc4IDI1Ljc2NiwyOS43MzggQzI0LjU0NywzMC41MDggMjMuMjE2LDMxLjA2IDIxLjgwOSwzMS4zNzcgQzIxLjMzMSwzMS40ODUgMjEuMDAyLDMxLjkyMiAyMS4wMywzMi40MSBMMjEuMTIxLDM0IEwxNi44NzksMzQgTDE2Ljk3LDMyLjQwOSBDMTYuOTk4LDMxLjkyIDE2LjY2OSwzMS40ODQgMTYuMTkyLDMxLjM3NiBDMTQuNzksMzEuMDYgMTMuNDU5LDMwLjUwNyAxMi4yMzYsMjkuNzM1IEMxMS44MjIsMjkuNDc0IDExLjI4LDI5LjU0OSAxMC45NTYsMjkuOTE1IEw5Ljg5MywzMS4xMDcgTDYuODk0LDI4LjEwNyBMOC4wODUsMjcuMDQ0IEM4LjQ0OSwyNi43MTkgOC41MjUsMjYuMTc4IDguMjY1LDI1Ljc2NSBDNy40OTUsMjQuNTQ2IDYuOTQ0LDIzLjIxNSA2LjYyOCwyMS44MDkgQzYuNTIsMjEuMzMxIDYuMDc1LDIxLjAwNyA1LjU5NSwyMS4wMyBMNCwyMS4xMjEgTDQsMTYuODc4IEw1LjYwMSwxNi45NyBDNi4wNTEsMTYuOTk1IDYuNTIzLDE2LjY2OSA2LjYzMywxNi4xOTMgQzYuOTUsMTQuNzkyIDcuNTAyLDEzLjQ2MyA4LjI3MiwxMi4yNDQgQzguNTMzLDExLjgzMSA4LjQ1NywxMS4yODkgOC4wOTMsMTAuOTY0IEw2Ljg5NCw5Ljg5NCBMOS44OTQsNi44OTQgTDEwLjk2Myw4LjA5MiBDMTEuMjg3LDguNDU3IDExLjgzMSw4LjUzMiAxMi4yNDIsOC4yNzIgQzEzLjQ2MSw3LjUwMyAxNC43OSw2Ljk1NCAxNi4xOTEsNi42MzcgQzE2LjY2OSw2LjUyOSAxNi45OTgsNi4wOTMgMTYuOTcsNS42MDUgTDE2Ljg3OSw0IEwyMS4xMjEsNCBMMjEuMDMsNS42MDYgQzIxLjAwMiw2LjA5NCAyMS4zMzEsNi41MyAyMS44MDgsNi42MzggQzIzLjIxLDYuOTU2IDI0LjUzOCw3LjUwNyAyNS43NTQsOC4yNzQgQzI2LjE2Nyw4LjUzNSAyNi43MDcsOC40NTkgMjcuMDM0LDguMDk1IEwyOC4xMDYsNi44OTQgTDMxLjEwNiw5Ljg5NCBMMjkuOTA5LDEwLjk2MSBDMjkuNTQ1LDExLjI4NyAyOS40NjksMTEuODI5IDI5LjcyOSwxMi4yNDIgQzMwLjUsMTMuNDU5IDMxLjA1MSwxNC43ODkgMzEuMzY4LDE2LjE5MiBDMzEuNDc2LDE2LjY2OSAzMS45MzcsMTYuOTk1IDMyLjQsMTYuOTcgTDM0LDE2Ljg3OCBMMzQsMjEuMTIxIEwzMi40MDIsMjEuMDMgQzMxLjkzNywyMS4wMDcgMzEuNDc4LDIxLjMzMSAzMS4zNywyMS44MDggQzMxLjA1NCwyMy4yMTIgMzAuNTAyLDI0LjU0MiAyOS43MzIsMjUuNzYyIEMyOS40NzIsMjYuMTc1IDI5LjU0OCwyNi43MTcgMjkuOTEyLDI3LjA0MiBMMzEuMTA2LDI4LjEwNyBMMjguMTA3LDMxLjEwNyBaIE0yMSw0MiBDMjEsNDMuMTAzIDIwLjEwMyw0NCAxOSw0NCBDMTcuODk3LDQ0IDE3LDQzLjEwMyAxNyw0MiBDMTcsNDAuODk3IDE3Ljg5Nyw0MCAxOSw0MCBDMjAuMTAzLDQwIDIxLDQwLjg5NyAyMSw0MiBMMjEsNDIgWiBNNDIsMTcgQzQzLjEwMywxNyA0NCwxNy44OTcgNDQsMTkgQzQ0LDIwLjEwMyA0My4xMDMsMjEgNDIsMjEgQzQwLjg5NywyMSA0MCwyMC4xMDMgNDAsMTkgQzQwLDE3Ljg5NyA0MC44OTcsMTcgNDIsMTcgTDQyLDE3IFogTTQxLDM2IEM0MC4wNjgsMzYgMzkuMjA1LDM2LjI3MyAzOC40NTcsMzYuNzE5IEwzMS44OSwzMC4xNTIgTDMzLjI3LDI4Ljc3MiBDMzMuNDY0LDI4LjU3OCAzMy41NywyOC4zMTIgMzMuNTYyLDI4LjAzNyBDMzMuNTU1LDI3Ljc2MiAzMy40MzQsMjcuNTAyIDMzLjIyOSwyNy4zMTkgTDMxLjg1NywyNi4wOTcgQzMyLjM4OCwyNS4xMzggMzIuODA3LDI0LjEyNiAzMy4xMDksMjMuMDc0IEwzNC45NDMsMjMuMTc5IEMzNS4yMTMsMjMuMTkzIDM1LjQ4NywyMy4wOTYgMzUuNjg3LDIyLjkwNyBDMzUuODg3LDIyLjcxOCAzNiwyMi40NTUgMzYsMjIuMTggTDM2LDIwIEwzOC4xNDIsMjAgQzM4LjU4OSwyMS43MiA0MC4xNDEsMjMgNDIsMjMgQzQ0LjIwNiwyMyA0NiwyMS4yMDYgNDYsMTkgQzQ2LDE2Ljc5NCA0NC4yMDYsMTUgNDIsMTUgQzQwLjE0MSwxNSAzOC41ODksMTYuMjggMzguMTQyLDE4IEwzNiwxOCBMMzYsMTUuODIgQzM2LDE1LjU0NSAzNS44ODcsMTUuMjgyIDM1LjY4NywxNS4wOTMgQzM1LjQ4NywxNC45MDQgMzUuMjE0LDE0LjgwMyAzNC45NDMsMTQuODIxIEwzMy4xMDcsMTQuOTI2IEMzMi44MDUsMTMuODc1IDMyLjM4NSwxMi44NjQgMzEuODU0LDExLjkwNiBMMzMuMjI5LDEwLjY4MSBDMzMuNDM0LDEwLjQ5OCAzMy41NTUsMTAuMjM5IDMzLjU2Miw5Ljk2MyBDMzMuNTcsOS42ODggMzMuNDY0LDkuNDIyIDMzLjI3LDkuMjI4IEwyOC43NzIsNC43MzEgQzI4LjU3OCw0LjUzNiAyOC4zMTEsNC40MyAyOC4wMzcsNC40MzggQzI3Ljc2Myw0LjQ0NiAyNy41MDMsNC41NjcgMjcuMzE5LDQuNzcyIEwyNi4wODksNi4xNSBDMjUuMTMzLDUuNjIxIDI0LjEyNCw1LjIwMyAyMy4wNzMsNC45IEwyMy4xNzgsMy4wNTcgQzIzLjE5MywyLjc4MiAyMy4wOTYsMi41MTMgMjIuOTA2LDIuMzEzIEMyMi43MTgsMi4xMTMgMjIuNDU1LDIgMjIuMTgsMiBMMTUuODIsMiBDMTUuNTQ1LDIgMTUuMjgyLDIuMTEzIDE1LjA5NCwyLjMxMyBDMTQuOTA0LDIuNTEzIDE0LjgwNywyLjc4MiAxNC44MjIsMy4wNTcgTDE0LjkyNyw0Ljg5NyBDMTMuODc2LDUuMiAxMi44NjYsNS42MTggMTEuOTA4LDYuMTQ3IEwxMC42ODEsNC43NzIgQzEwLjQ5Nyw0LjU2NyAxMC4yMzgsNC40NDYgOS45NjMsNC40MzggQzkuNjkzLDQuNDMzIDkuNDIyLDQuNTM2IDkuMjI4LDQuNzMxIEw0LjczLDkuMjI4IEM0LjUzNiw5LjQyMiA0LjQzLDkuNjg4IDQuNDM3LDkuOTYzIEM0LjQ0NSwxMC4yMzggNC41NjYsMTAuNDk4IDQuNzcxLDEwLjY4MSBMNi4xNDcsMTEuOTA5IEM1LjYxNywxMi44NjcgNS4xOTcsMTMuODc2IDQuODk1LDE0LjkyNiBMMy4wNTcsMTQuODIxIEMyLjc4MSwxNC44MDMgMi41MTMsMTQuOTA0IDIuMzEzLDE1LjA5MyBDMi4xMTMsMTUuMjgyIDIsMTUuNTQ1IDIsMTUuODIgTDIsMjIuMTggQzIsMjIuNDU1IDIuMTEzLDIyLjcxOCAyLjMxMywyMi45MDcgQzIuNTE0LDIzLjA5NiAyLjc2OCwyMy4xOTQgMy4wNTgsMjMuMTc5IEw0Ljg4OCwyMy4wNzQgQzUuMTksMjQuMTI3IDUuNjA5LDI1LjE0IDYuMTQsMjYuMDk5IEw0Ljc3MSwyNy4zMTkgQzQuNTY2LDI3LjUwMiA0LjQ0NSwyNy43NjIgNC40MzcsMjguMDM3IEM0LjQzLDI4LjMxMiA0LjUzNiwyOC41NzggNC43MywyOC43NzIgTDkuMjI4LDMzLjI3IEM5LjQyMiwzMy40NjQgOS42OTEsMzMuNTczIDkuOTYzLDMzLjU2MiBDMTAuMjM4LDMzLjU1NCAxMC40OTgsMzMuNDM0IDEwLjY4MSwzMy4yMjggTDExLjkwMSwzMS44NiBDMTIuODYyLDMyLjM5MiAxMy44NzUsMzIuODEyIDE0LjkyNywzMy4xMTUgTDE0LjgyMiwzNC45NDMgQzE0LjgwNywzNS4yMTggMTQuOTA0LDM1LjQ4NyAxNS4wOTQsMzUuNjg3IEMxNS4yODIsMzUuODg3IDE1LjU0NSwzNiAxNS44MiwzNiBMMTgsMzYgTDE4LDM4LjE0MiBDMTYuMjc5LDM4LjU4OSAxNSw0MC4xNDIgMTUsNDIgQzE1LDQ0LjIwNiAxNi43OTQsNDYgMTksNDYgQzIxLjIwNiw0NiAyMyw0NC4yMDYgMjMsNDIgQzIzLDQwLjE0MiAyMS43MjEsMzguNTg5IDIwLDM4LjE0MiBMMjAsMzYgTDIyLjE4LDM2IEMyMi40NTUsMzYgMjIuNzE4LDM1Ljg4NyAyMi45MDYsMzUuNjg3IEMyMy4wOTYsMzUuNDg3IDIzLjE5MywzNS4yMTggMjMuMTc4LDM0Ljk0MyBMMjMuMDczLDMzLjExNyBDMjQuMTI4LDMyLjgxMyAyNS4xNDIsMzIuMzk0IDI2LjEwMiwzMS44NjIgTDI3LjMxOSwzMy4yMjggQzI3LjUwMiwzMy40MzQgMjcuNzYyLDMzLjU1NCAyOC4wMzcsMzMuNTYyIEMyOC4zMTIsMzMuNTc2IDI4LjU3OCwzMy40NjQgMjguNzcyLDMzLjI3IEwzMC40NzYsMzEuNTY2IEwzNi45NzQsMzguMDYzIEMzNi4zNjksMzguODkgMzYsMzkuODk5IDM2LDQxIEMzNiw0My43NTcgMzguMjQzLDQ2IDQxLDQ2IEM0My43NTcsNDYgNDYsNDMuNzU3IDQ2LDQxIEM0NiwzOC4yNDMgNDMuNzU3LDM2IDQxLDM2IEw0MSwzNiBaIE0yMCwxOCBMMjMsMTggTDIzLDIwIEwyMCwyMCBMMjAsMjMgTDE4LDIzIEwxOCwyMCBMMTUsMjAgTDE1LDE4IEwxOCwxOCBMMTgsMTUgTDIwLDE1IEwyMCwxOCBaIE0xOSwyNSBDMTUuNjkxLDI1IDEzLDIyLjMwOSAxMywxOSBDMTMsMTUuNjkxIDE1LjY5MSwxMyAxOSwxMyBDMjIuMzA5LDEzIDI1LDE1LjY5MSAyNSwxOSBDMjUsMjIuMzA5IDIyLjMwOSwyNSAxOSwyNSBMMTksMjUgWiBNMTksMTEgQzE0LjU4OSwxMSAxMSwxNC41ODkgMTEsMTkgQzExLDIzLjQxMSAxNC41ODksMjcgMTksMjcgQzIzLjQxMSwyNyAyNywyMy40MTEgMjcsMTkgQzI3LDE0LjU4OSAyMy40MTEsMTEgMTksMTEgTDE5LDExIFoiLz4KICAgIDwvZz4KPC9zdmc+;" vertex="1" parent="1">
                    <mxGeometry x="55" y="196" width="38" height="38" as="geometry"/>
                </mxCell>
                <mxCell id="35" value="" style="shape=image;verticalLabelPosition=bottom;labelBackgroundColor=default;verticalAlign=top;aspect=fixed;imageAspect=0;image=data:image/svg+xml,PHN2ZyB4bWxuczp4bGluaz0iaHR0cDovL3d3dy53My5vcmcvMTk5OS94bGluayIgeG1sbnM9Imh0dHA6Ly93d3cudzMub3JnLzIwMDAvc3ZnIiB2ZXJzaW9uPSIxLjEiIHZpZXdCb3g9IjAgMCA0OCA0OCIgaGVpZ2h0PSI0OHB4IiB3aWR0aD0iNDhweCI+CiAgICA8dGl0bGU+SWNvbi1SZXNvdXJjZS9Db21wdXRlL1Jlc19BV1MtTGFtYmRhX0xhbWJkYS1GdW5jdGlvbl80ODwvdGl0bGU+CiAgICA8ZyBmaWxsLXJ1bGU9ImV2ZW5vZGQiIGZpbGw9Im5vbmUiIHN0cm9rZS13aWR0aD0iMSIgc3Ryb2tlPSJub25lIiBpZD0iSWNvbi1SZXNvdXJjZS9Db21wdXRlL1Jlc19BV1MtTGFtYmRhX0xhbWJkYS1GdW5jdGlvbl80OCI+CiAgICAgICAgPHBhdGggZmlsbD0iI0VENzEwMCIgaWQ9IkFtYXpvbi1MYW1iZGEtTGFtYmRhLUZ1bmN0aW9uX1Jlc291cmNlLUljb25fbGlnaHQtYmciIGQ9Ik0yNCw0NCBDMTIuOTcyLDQ0IDQsMzUuMDI4IDQsMjQgQzQsMTIuOTcyIDEyLjk3Miw0IDI0LDQgQzM1LjAyOCw0IDQ0LDEyLjk3MiA0NCwyNCBDNDQsMzUuMDI4IDM1LjAyOCw0NCAyNCw0NCBMMjQsNDQgWiBNMjQsMiBDMTEuODY5LDIgMiwxMS44NjkgMiwyNCBDMiwzNi4xMzEgMTEuODY5LDQ2IDI0LDQ2IEMzNi4xMzEsNDYgNDYsMzYuMTMxIDQ2LDI0IEM0NiwxMS44NjkgMzYuMTMxLDIgMjQsMiBMMjQsMiBaIE0xNy4yMzEsMzUuMjUgTDExLjg3NiwzNS4yNSBMMTguMjIxLDIxLjk1OSBMMjAuOTAyLDI3LjQ5MiBMMTcuMjMxLDM1LjI1IFogTTE5LjExNCwxOS4yMTUgQzE4Ljk0NiwxOC44NyAxOC41OTcsMTguNjUxIDE4LjIxNCwxOC42NTEgTDE4LjIxMSwxOC42NTEgQzE3LjgyNiwxOC42NTIgMTcuNDc3LDE4Ljg3NCAxNy4zMTIsMTkuMjIxIEw5LjM4OSwzNS44MTkgQzkuMjQsMzYuMTI5IDkuMjYyLDM2LjQ5MyA5LjQ0NSwzNi43ODMgQzkuNjI4LDM3LjA3NCA5Ljk0NywzNy4yNSAxMC4yOTEsMzcuMjUgTDE3Ljg2NCwzNy4yNSBDMTguMjUxLDM3LjI1IDE4LjYwMywzNy4wMjcgMTguNzY5LDM2LjY3OCBMMjIuOTE1LDI3LjkxNSBDMjMuMDQ0LDI3LjY0MiAyMy4wNDMsMjcuMzIzIDIyLjkxMSwyNy4wNTEgTDE5LjExNCwxOS4yMTUgWiBNMzYuMTI1LDM1LjI1IEwzMC42NzMsMzUuMjUgTDIwLjc2MSwxMy45NTMgQzIwLjU5NywxMy42MDEgMjAuMjQzLDEzLjM3NSAxOS44NTQsMTMuMzc1IEwxNi4yNTEsMTMuMzc1IEwxNi4yNTUsOS4yNSBMMjMuNDc1LDkuMjUgTDMzLjMzOSwzMC41NDUgQzMzLjUwMywzMC44OTggMzMuODU2LDMxLjEyNSAzNC4yNDYsMzEuMTI1IEwzNi4xMjUsMzEuMTI1IEwzNi4xMjUsMzUuMjUgWiBNMzcuMTI1LDI5LjEyNSBMMzQuODg1LDI5LjEyNSBMMjUuMDIxLDcuODMgQzI0Ljg1Niw3LjQ3NyAyNC41MDMsNy4yNSAyNC4xMTMsNy4yNSBMMTUuMjU2LDcuMjUgQzE0LjcwNCw3LjI1IDE0LjI1Nyw3LjY5NyAxNC4yNTYsOC4yNDkgTDE0LjI1LDE0LjM3NCBDMTQuMjUsMTQuNjQgMTQuMzU1LDE0Ljg5NCAxNC41NDMsMTUuMDgyIEMxNC43MywxNS4yNyAxNC45ODQsMTUuMzc1IDE1LjI1LDE1LjM3NSBMMTkuMjE3LDE1LjM3NSBMMjkuMTI5LDM2LjY3MiBDMjkuMjkzLDM3LjAyNCAyOS42NDYsMzcuMjUgMzAuMDM1LDM3LjI1IEwzNy4xMjUsMzcuMjUgQzM3LjY3OCwzNy4yNSAzOC4xMjUsMzYuODAzIDM4LjEyNSwzNi4yNSBMMzguMTI1LDMwLjEyNSBDMzguMTI1LDI5LjU3MiAzNy42NzgsMjkuMTI1IDM3LjEyNSwyOS4xMjUgTDM3LjEyNSwyOS4xMjUgWiIvPgogICAgPC9nPgo8L3N2Zz4=;" vertex="1" parent="1">
                    <mxGeometry x="47.5" y="267.5" width="38" height="38" as="geometry"/>
                </mxCell>
                <mxCell id="36" value="" style="shape=image;verticalLabelPosition=bottom;labelBackgroundColor=default;verticalAlign=top;aspect=fixed;imageAspect=0;image=data:image/svg+xml,PHN2ZyB4bWxuczp4bGluaz0iaHR0cDovL3d3dy53My5vcmcvMTk5OS94bGluayIgeG1sbnM9Imh0dHA6Ly93d3cudzMub3JnLzIwMDAvc3ZnIiB2ZXJzaW9uPSIxLjEiIHZpZXdCb3g9IjAgMCA0OCA0OCIgaGVpZ2h0PSI0OHB4IiB3aWR0aD0iNDhweCI+CiAgICA8dGl0bGU+SWNvbi1SZXNvdXJjZS9BbmFseXRpY3MvUmVzX0FtYXpvbi1NU0tfQW1hem9uLU1TSy1Db25uZWN0XzQ4PC90aXRsZT4KICAgIDxnIGZpbGwtcnVsZT0iZXZlbm9kZCIgZmlsbD0ibm9uZSIgc3Ryb2tlLXdpZHRoPSIxIiBzdHJva2U9Im5vbmUiIGlkPSJJY29uLVJlc291cmNlL0FuYWx5dGljcy9SZXNfQW1hem9uLU1TS19BbWF6b24tTVNLLUNvbm5lY3RfNDgiPgogICAgICAgIDxwYXRoIGZpbGw9IiM4QzRGRkYiIGlkPSJGaWxsLTEiIGQ9Ik0yOS4wMzUsMzguMzc5OSBMMzAuMTMzLDM5LjQwMjkgTDIzLjk5OCw0NS45OTk5IEwxNy44NjUsMzkuNDAyOSBMMTguOTY0LDM4LjM3OTkgTDIzLDQyLjcyMjkgTDIzLDI3LjEwMjkgTDcuOTYxLDE5LjM4NjkgTDkuOTgxLDI0Ljk1NzkgTDguNTY5LDI1LjQ2ODkgTDUuNTAxLDE2Ljk5ODkgTDE0LjE3LDE0LjU1MzkgTDE0LjU3OSwxNS45OTc5IEw4Ljg3MSwxNy42MDY5IEwyNCwyNS4zNjg5IEwzOS4xMjYsMTcuNjA3OSBMMzMuNDIyLDE1Ljk5OTkgTDMzLjgzLDE0LjU1NDkgTDQyLjUwMSwxNy4wMDE5IEwzOS40MzEsMjUuNDY5OSBMMzguMDE5LDI0Ljk1OTkgTDQwLjA0MSwxOS4zODQ5IEwyNSwyNy4xMDI5IEwyNSw0Mi43MTk5IEwyOS4wMzUsMzguMzc5OSBaIE00MS41LDM3Ljk5OTkgQzQwLjEyMSwzNy45OTk5IDM5LDM2Ljg3ODkgMzksMzUuNDk5OSBDMzksMzQuMTIxOSA0MC4xMjEsMzIuOTk5OSA0MS41LDMyLjk5OTkgQzQyLjg3OSwzMi45OTk5IDQ0LDM0LjEyMTkgNDQsMzUuNDk5OSBDNDQsMzYuODc4OSA0Mi44NzksMzcuOTk5OSA0MS41LDM3Ljk5OTkgTDQxLjUsMzcuOTk5OSBaIE00MS41LDMwLjk5OTkgQzQwLjk4NCwzMC45OTk5IDQwLjQ5NiwzMS4xMDQ5IDQwLjAzNSwzMS4yNjU5IEwzNS40NzMsMjMuOTY5OSBMMzMuNzc4LDI1LjAyOTkgTDM4LjMzLDMyLjMxMDkgQzM3LjczOCwzMi44OTk5IDM3LjMxNSwzMy42NTM5IDM3LjEyMiwzNC40OTQ5IEwyNywzNC40OTQ5IEwyNywzNi40OTQ5IEwzNy4xMTksMzYuNDk0OSBDMzcuNTc0LDM4LjQ5NzkgMzkuMzYxLDM5Ljk5OTkgNDEuNSwzOS45OTk5IEM0My45ODEsMzkuOTk5OSA0NiwzNy45ODE5IDQ2LDM1LjQ5OTkgQzQ2LDMzLjAxODkgNDMuOTgxLDMwLjk5OTkgNDEuNSwzMC45OTk5IEw0MS41LDMwLjk5OTkgWiBNNi41LDM3Ljk5OTkgQzUuMTIxLDM3Ljk5OTkgNCwzNi44Nzg5IDQsMzUuNDk5OSBDNCwzNC4xMjE5IDUuMTIxLDMyLjk5OTkgNi41LDMyLjk5OTkgQzcuODc5LDMyLjk5OTkgOSwzNC4xMjE5IDksMzUuNDk5OSBDOSwzNi44Nzg5IDcuODc5LDM3Ljk5OTkgNi41LDM3Ljk5OTkgTDYuNSwzNy45OTk5IFogTTIxLDM2LjQ5NDkgTDIxLDM0LjQ5NDkgTDEwLjg3OCwzNC40OTQ5IEMxMC42ODQsMzMuNjUzOSAxMC4yNjIsMzIuODk5OSA5LjY3LDMyLjMxMDkgTDE0LjIyMiwyNS4wMjk5IEwxMi41MjYsMjMuOTY5OSBMNy45NjUsMzEuMjY1OSBDNy41MDMsMzEuMTA0OSA3LjAxNSwzMC45OTk5IDYuNSwzMC45OTk5IEM0LjAxOCwzMC45OTk5IDIsMzMuMDE4OSAyLDM1LjQ5OTkgQzIsMzcuOTgxOSA0LjAxOCwzOS45OTk5IDYuNSwzOS45OTk5IEM4LjYzOSwzOS45OTk5IDEwLjQyNiwzOC40OTc5IDEwLjg4MSwzNi40OTQ5IEwyMSwzNi40OTQ5IFogTTI0LDQuOTk5OSBDMjUuMzc5LDQuOTk5OSAyNi41LDYuMTIxOSAyNi41LDcuNDk5OSBDMjYuNSw4Ljg3ODkgMjUuMzc5LDkuOTk5OSAyNCw5Ljk5OTkgQzIyLjYyMSw5Ljk5OTkgMjEuNSw4Ljg3ODkgMjEuNSw3LjQ5OTkgQzIxLjUsNi4xMjE5IDIyLjYyMSw0Ljk5OTkgMjQsNC45OTk5IEwyNCw0Ljk5OTkgWiBNMTcuNDUzLDE5Ljg2MjkgTDIyLjUzNiwxMS43MzQ5IEMyMi45OTcsMTEuODk0OSAyMy40ODQsMTEuOTk5OSAyNCwxMS45OTk5IEMyNC41MTUsMTEuOTk5OSAyNS4wMDMsMTEuODk0OSAyNS40NjUsMTEuNzMzOSBMMzAuNTQ3LDE5Ljg2MjkgTDMyLjI0MiwxOC44MDE5IEwyNy4xNywxMC42ODk5IEMyNy45OSw5Ljg3MzkgMjguNSw4Ljc0NTkgMjguNSw3LjQ5OTkgQzI4LjUsNS4wMTg5IDI2LjQ4MSwyLjk5OTkgMjQsMi45OTk5IEMyMS41MTgsMi45OTk5IDE5LjUsNS4wMTg5IDE5LjUsNy40OTk5IEMxOS41LDguNzQ1OSAyMC4wMSw5Ljg3MzkgMjAuODMxLDEwLjY4OTkgTDE1Ljc1OCwxOC44MDE5IEwxNy40NTMsMTkuODYyOSBaIi8+CiAgICA8L2c+Cjwvc3ZnPg==;" vertex="1" parent="1">
                    <mxGeometry x="230" y="266" width="38" height="38" as="geometry"/>
                </mxCell>
                <mxCell id="37" value="" style="shape=image;verticalLabelPosition=bottom;labelBackgroundColor=default;verticalAlign=top;aspect=fixed;imageAspect=0;image=data:image/svg+xml,PHN2ZyB4bWxuczp4bGluaz0iaHR0cDovL3d3dy53My5vcmcvMTk5OS94bGluayIgeG1sbnM9Imh0dHA6Ly93d3cudzMub3JnLzIwMDAvc3ZnIiB2ZXJzaW9uPSIxLjEiIHZpZXdCb3g9IjAgMCA0OCA0OCIgaGVpZ2h0PSI0OHB4IiB3aWR0aD0iNDhweCI+CiAgICA8dGl0bGU+SWNvbi1SZXNvdXJjZS9NYWNoaW5lLUxlYXJuaW5nL1Jlc19BbWF6b24tU2FnZU1ha2VyX01vZGVsXzQ4PC90aXRsZT4KICAgIDxnIGZpbGwtcnVsZT0iZXZlbm9kZCIgZmlsbD0ibm9uZSIgc3Ryb2tlLXdpZHRoPSIxIiBzdHJva2U9Im5vbmUiIGlkPSJJY29uLVJlc291cmNlL01hY2hpbmUtTGVhcm5pbmcvUmVzX0FtYXpvbi1TYWdlTWFrZXJfTW9kZWxfNDgiPgogICAgICAgIDxwYXRoIGZpbGw9IiMwMUE4OEQiIGlkPSJBbWF6b24tTWFjaGluZS1MZWFybmluZ19Nb2RlbC1JY29uX2xpZ2h0LWJnIiBkPSJNMjkuOTU1OSwyOS44Mjk3IEMyOS45NTU5LDMwLjMxNTcgMjkuNTU5OSwzMC43MTE3IDI5LjA3NDksMzAuNzExNyBDMjguNTg4OSwzMC43MTE3IDI4LjE5MjksMzAuMzE1NyAyOC4xOTI5LDI5LjgyOTcgQzI4LjE5MjksMjkuMzQ0NyAyOC41ODg5LDI4Ljk0ODcgMjkuMDc0OSwyOC45NDg3IEMyOS41NTk5LDI4Ljk0ODcgMjkuOTU1OSwyOS4zNDQ3IDI5Ljk1NTksMjkuODI5NyBMMjkuOTU1OSwyOS44Mjk3IFogTTMyLjgzNzksMTEuODk0NyBDMzIuMzUxOSwxMS44OTQ3IDMxLjk1NTksMTEuNDk5NyAzMS45NTU5LDExLjAxMzcgQzMxLjk1NTksMTAuNTI2NyAzMi4zNTE5LDEwLjEzMTcgMzIuODM3OSwxMC4xMzE3IEMzMy4zMjM5LDEwLjEzMTcgMzMuNzE5OSwxMC41MjY3IDMzLjcxOTksMTEuMDEzNyBDMzMuNzE5OSwxMS40OTk3IDMzLjMyMzksMTEuODk0NyAzMi44Mzc5LDExLjg5NDcgTDMyLjgzNzksMTEuODk0NyBaIE0yOS40MTg5LDIwLjY5MDcgQzI5LjQxODksMjEuMTc2NyAyOS4wMjI5LDIxLjU3MTcgMjguNTM2OSwyMS41NzE3IEMyOC4wNTA5LDIxLjU3MTcgMjcuNjU0OSwyMS4xNzY3IDI3LjY1NDksMjAuNjkwNyBDMjcuNjU0OSwyMC4yMDQ3IDI4LjA1MDksMTkuODA4NyAyOC41MzY5LDE5LjgwODcgQzI5LjAyMjksMTkuODA4NyAyOS40MTg5LDIwLjIwNDcgMjkuNDE4OSwyMC42OTA3IEwyOS40MTg5LDIwLjY5MDcgWiBNMzQuMTA1OSwzNi4yODE3IEMzNC4xMDU5LDM1Ljc5NTcgMzQuNTAxOSwzNS4zOTk3IDM0Ljk4NzksMzUuMzk5NyBDMzUuNDc0OSwzNS4zOTk3IDM1Ljg2OTksMzUuNzk1NyAzNS44Njk5LDM2LjI4MTcgQzM1Ljg2OTksMzYuNzY2NyAzNS40NzQ5LDM3LjE2MjcgMzQuOTg3OSwzNy4xNjI3IEMzNC41MDE5LDM3LjE2MjcgMzQuMTA1OSwzNi43NjY3IDM0LjEwNTksMzYuMjgxNyBMMzQuMTA1OSwzNi4yODE3IFogTTM4LjUyOTksMzEuMzAyNyBDMzguMjE0OSwzMS40Nzg3IDM4LjAxOTksMzEuODExNyAzOC4wMTk5LDMyLjE3MzcgTDM4LjAxOTksMzguMzY0NyBMMzAuODgwOSw0Mi41ODY3IEwzMC44ODA5LDM3LjU1MDcgTDMyLjQxMzksMzcuNTUwNyBDMzIuODg1OSwzOC41MDE3IDMzLjg1NTksMzkuMTYyNyAzNC45ODc5LDM5LjE2MjcgQzM2LjU3NjksMzkuMTYyNyAzNy44Njk5LDM3Ljg3MDcgMzcuODY5OSwzNi4yODE3IEMzNy44Njk5LDM0LjY5MjcgMzYuNTc2OSwzMy4zOTk3IDM0Ljk4NzksMzMuMzk5NyBDMzMuNjUzOSwzMy4zOTk3IDMyLjUzNzksMzQuMzE2NyAzMi4yMTE5LDM1LjU1MDcgTDI5Ljg4MDksMzUuNTUwNyBDMjkuMzI3OSwzNS41NTA3IDI4Ljg4MDksMzUuOTk3NyAyOC44ODA5LDM2LjU1MDcgTDI4Ljg4MDksNDMuNzY4NyBMMjguNDc1OSw0NC4wMDg3IEwyNC45Njc5LDQxLjk3NTcgTDI0Ljk2NzksMTYuMDQ1NyBMMjcuODA1OSwxNi4wNDU3IEwyNy44MDU5LDE3LjkxNDcgQzI2LjU3MTksMTguMjQwNyAyNS42NTQ5LDE5LjM1NTcgMjUuNjU0OSwyMC42OTA3IEMyNS42NTQ5LDIyLjI3OTcgMjYuOTQ3OSwyMy41NzE3IDI4LjUzNjksMjMuNTcxNyBDMzAuMTI1OSwyMy41NzE3IDMxLjQxODksMjIuMjc5NyAzMS40MTg5LDIwLjY5MDcgQzMxLjQxODksMTkuNTU4NyAzMC43NTY5LDE4LjU4NzcgMjkuODA1OSwxOC4xMTY3IEwyOS44MDU5LDE2LjA0NTcgTDMzLjEwNTksMTYuMDQ1NyBDMzMuNjU4OSwxNi4wNDU3IDM0LjEwNTksMTUuNTk4NyAzNC4xMDU5LDE1LjA0NTcgTDM0LjEwNTksMTMuNTg3NyBDMzUuMDU3OSwxMy4xMTY3IDM1LjcxOTksMTIuMTQ0NyAzNS43MTk5LDExLjAxMzcgQzM1LjcxOTksOS40MjQ3IDM0LjQyNjksOC4xMzE3IDMyLjgzNzksOC4xMzE3IEMzMS4yNDg5LDguMTMxNyAyOS45NTU5LDkuNDI0NyAyOS45NTU5LDExLjAxMzcgQzI5Ljk1NTksMTIuMzQ4NyAzMC44NzI5LDEzLjQ2MzcgMzIuMTA1OSwxMy43ODk3IEwzMi4xMDU5LDE0LjA0NTcgTDI0Ljk2NzksMTQuMDQ1NyBMMjQuOTY3OSw2LjgwMzcgTDI5LjM2NTksNC4xNjk3IEwzOC41NTc5LDkuNzczNyBMMzguNTU4OSwxNS45Mzc3IEMzOC41NTg5LDE2LjI5ODcgMzguNzUxOSwxNi42MzA3IDM5LjA2NDksMTYuODA4NyBMNDMuOTMzOSwxOS41Njg3IEw0My45MzQ5LDIyLjY0NjcgTDM0LjcxOTksMjIuNjQ2NyBDMzQuMTY2OSwyMi42NDY3IDMzLjcxOTksMjMuMDk0NyAzMy43MTk5LDIzLjY0NjcgTDMzLjcxOTksMjguNTYwNyBMMzEuNjQ4OSwyOC41NjA3IEMzMS4xNzc5LDI3LjYwOTcgMzAuMjA2OSwyNi45NDg3IDI5LjA3NDksMjYuOTQ4NyBDMjcuNDg1OSwyNi45NDg3IDI2LjE5MjksMjguMjQwNyAyNi4xOTI5LDI5LjgyOTcgQzI2LjE5MjksMzEuNDE4NyAyNy40ODU5LDMyLjcxMTcgMjkuMDc0OSwzMi43MTE3IEMzMC40MDk5LDMyLjcxMTcgMzEuNTIzOSwzMS43OTQ3IDMxLjg1MDksMzAuNTYwNyBMMzQuNzE5OSwzMC41NjA3IEMzNS4yNzE5LDMwLjU2MDcgMzUuNzE5OSwzMC4xMTM3IDM1LjcxOTksMjkuNTYwNyBMMzUuNzE5OSwyNC42NDY3IEw0My45MzQ5LDI0LjY0NjcgTDQzLjkzNDksMjguMjU5NyBMMzguNTI5OSwzMS4zMDI3IFogTTE3LjI0NjksMjguNDEwNyBDMTcuNzMyOSwyOC40MTA3IDE4LjEyODksMjguODA2NyAxOC4xMjg5LDI5LjI5MjcgQzE4LjEyODksMjkuNzc4NyAxNy43MzI5LDMwLjE3NDcgMTcuMjQ2OSwzMC4xNzQ3IEMxNi43NjA5LDMwLjE3NDcgMTYuMzY0OSwyOS43Nzg3IDE2LjM2NDksMjkuMjkyNyBDMTYuMzY0OSwyOC44MDY3IDE2Ljc2MDksMjguNDEwNyAxNy4yNDY5LDI4LjQxMDcgTDE3LjI0NjksMjguNDEwNyBaIE0xNS44Mjc5LDEyLjYyNjcgQzE1LjgyNzksMTIuMTQwNyAxNi4yMjM5LDExLjc0NDcgMTYuNzA5OSwxMS43NDQ3IEMxNy4xOTQ5LDExLjc0NDcgMTcuNTkwOSwxMi4xNDA3IDE3LjU5MDksMTIuNjI2NyBDMTcuNTkwOSwxMy4xMTI3IDE3LjE5NDksMTMuNTA4NyAxNi43MDk5LDEzLjUwODcgQzE2LjIyMzksMTMuNTA4NyAxNS44Mjc5LDEzLjExMjcgMTUuODI3OSwxMi42MjY3IEwxNS44Mjc5LDEyLjYyNjcgWiBNMTIuMjE0OSwyMC42OTA3IEMxMi4yMTQ5LDIxLjE3NjcgMTEuODE4OSwyMS41NzE3IDExLjMzMjksMjEuNTcxNyBDMTAuODQ3OSwyMS41NzE3IDEwLjQ1MTksMjEuMTc2NyAxMC40NTE5LDIwLjY5MDcgQzEwLjQ1MTksMjAuMjA0NyAxMC44NDc5LDE5LjgwODcgMTEuMzMyOSwxOS44MDg3IEMxMS44MTg5LDE5LjgwODcgMTIuMjE0OSwyMC4yMDQ3IDEyLjIxNDksMjAuNjkwNyBMMTIuMjE0OSwyMC42OTA3IFogTTE3LjQzOTksMzcuODkzNyBDMTcuNDM5OSwzNy40MDc3IDE3LjgzNTksMzcuMDEyNyAxOC4zMjE5LDM3LjAxMjcgQzE4LjgwODksMzcuMDEyNyAxOS4yMDM5LDM3LjQwNzcgMTkuMjAzOSwzNy44OTM3IEMxOS4yMDM5LDM4LjM4MDcgMTguODA4OSwzOC43NzU3IDE4LjMyMTksMzguNzc1NyBDMTcuODM1OSwzOC43NzU3IDE3LjQzOTksMzguMzgwNyAxNy40Mzk5LDM3Ljg5MzcgTDE3LjQzOTksMzcuODkzNyBaIE0xOC45MTE5LDQ0LjAwMjcgTDkuMzc1OSwzOC4zNjI3IEw5LjM3NjksMzIuMTcyNyBDOS4zNzY5LDMxLjgwODcgOS4xNzg5LDMxLjQ3MjcgOC44NTg5LDMxLjI5NjcgTDguNTAwOSwzMS4wOTk3IEwxMS4xMzk5LDMxLjA5OTcgTDExLjEzOTksMzguMTYyNyBDMTEuMTM5OSwzOC43MTU3IDExLjU4NjksMzkuMTYyNyAxMi4xMzk5LDM5LjE2MjcgTDE1Ljc0NzksMzkuMTYyNyBDMTYuMjE4OSw0MC4xMTM3IDE3LjE4OTksNDAuNzc1NyAxOC4zMjE5LDQwLjc3NTcgQzE5LjkxMDksNDAuNzc1NyAyMS4yMDM5LDM5LjQ4MjcgMjEuMjAzOSwzNy44OTM3IEMyMS4yMDM5LDM2LjMwNTcgMTkuOTEwOSwzNS4wMTI3IDE4LjMyMTksMzUuMDEyNyBDMTYuOTg3OSwzNS4wMTI3IDE1Ljg3MTksMzUuOTI5NyAxNS41NDU5LDM3LjE2MjcgTDEzLjEzOTksMzcuMTYyNyBMMTMuMTM5OSwzMC4wOTk3IEMxMy4xMzk5LDI5LjU0NjcgMTIuNjkxOSwyOS4wOTk3IDEyLjEzOTksMjkuMDk5NyBMNC44NjM5LDI5LjA5OTcgTDQuMDAwOSwyOC42MjQ3IEwzLjk5OTksMTkuNTY3NyBMOC44Njg5LDE2LjgwNjcgQzkuMTgyOSwxNi42Mjg3IDkuMzc1OSwxNi4yOTY3IDkuMzc1OSwxNS45MzU3IEw5LjM3NjksMTMuMzU2NyBMMTAuNjAxOSwxMy4zNTY3IEwxMC42MDE5LDE3LjkxNDcgQzkuMzY4OSwxOC4yNDA3IDguNDUxOSwxOS4zNTU3IDguNDUxOSwyMC42OTA3IEM4LjQ1MTksMjIuMjc5NyA5Ljc0MzksMjMuNTcxNyAxMS4zMzI5LDIzLjU3MTcgQzEyLjkyMTksMjMuNTcxNyAxNC4yMTQ5LDIyLjI3OTcgMTQuMjE0OSwyMC42OTA3IEMxNC4yMTQ5LDE5LjU1OTcgMTMuNTUzOSwxOC41ODg3IDEyLjYwMTksMTguMTE2NyBMMTIuNjAxOSwxMy4zNTY3IEwxMy45MzM5LDEzLjM1NjcgQzE0LjI1OTksMTQuNTkxNyAxNS4zNzQ5LDE1LjUwODcgMTYuNzA5OSwxNS41MDg3IEMxOC4yOTg5LDE1LjUwODcgMTkuNTkwOSwxNC4yMTU3IDE5LjU5MDksMTIuNjI2NyBDMTkuNTkwOSwxMS4wMzc3IDE4LjI5ODksOS43NDQ3IDE2LjcwOTksOS43NDQ3IEMxNS41Nzg5LDkuNzQ0NyAxNC42MDY5LDEwLjQwNTcgMTQuMTM1OSwxMS4zNTY3IEw5LjM3NjksMTEuMzU2NyBMOS4zNzY5LDkuNzcxNyBMMTguNTY3OSw0LjE2ODcgTDIyLjk2NzksNi44MDI3IEwyMi45Njc5LDE4LjM0NjcgTDE2Ljk3NzksMTguMzQ2NyBDMTYuNDI1OSwxOC4zNDY3IDE1Ljk3NzksMTguNzkzNyAxNS45Nzc5LDE5LjM0NjcgTDE1Ljk3NzksMjYuNzE4NyBDMTUuMDI2OSwyNy4xODg3IDE0LjM2NDksMjguMTYwNyAxNC4zNjQ5LDI5LjI5MjcgQzE0LjM2NDksMzAuODgxNyAxNS42NTc5LDMyLjE3NDcgMTcuMjQ2OSwzMi4xNzQ3IEMxOC44MzU5LDMyLjE3NDcgMjAuMTI4OSwzMC44ODE3IDIwLjEyODksMjkuMjkyNyBDMjAuMTI4OSwyNy45NTc3IDE5LjIxMTksMjYuODQyNyAxNy45Nzc5LDI2LjUxNjcgTDE3Ljk3NzksMjAuMzQ2NyBMMjIuOTY3OSwyMC4zNDY3IEwyMi45Njc5LDQxLjU4OTcgTDE4LjkxMTksNDQuMDAyNyBaIE00NS45MzM5LDE4Ljk4NjcgQzQ1LjkzMzksMTguNjI2NyA0NS43Mzk5LDE4LjI5NDcgNDUuNDI2OSwxOC4xMTY3IEw0MC41NTg5LDE1LjM1NTcgTDQwLjU1NzksOS4yMTI3IEM0MC41NTc5LDguODYzNyA0MC4zNzU5LDguNTQwNyA0MC4wNzc5LDguMzU4NyBMMjkuODkxOSwyLjE0NzcgQzI5LjU3MzksMS45NTQ3IDI5LjE3NjksMS45NTE3IDI4Ljg1NjksMi4xNDI3IEwyMy45Njg5LDUuMDY5NyBMMTkuMDc2OSwyLjE0MjcgQzE4Ljc1NjksMS45NTA3IDE4LjM1ODksMS45NTI3IDE4LjA0MjksMi4xNDY3IEw3Ljg1NTksOC4zNTY3IEM3LjU1ODksOC41Mzg3IDcuMzc2OSw4Ljg2MTcgNy4zNzY5LDkuMjEwNyBMNy4zNzU5LDE1LjM1MzcgTDIuNTA2OSwxOC4xMTU3IEMyLjE5MjksMTguMjkzNyAxLjk5OTksMTguNjI1NyAxLjk5OTksMTguOTg1NyBMMi4wMDA5LDI5LjIxNTcgQzIuMDAwOSwyOS41ODA3IDIuMTk4OSwyOS45MTU3IDIuNTE3OSwzMC4wOTE3IEw3LjM3NjksMzIuNzYzNyBMNy4zNzU5LDM4LjkzMzcgQzcuMzc1OSwzOS4yODY3IDcuNTYxOSwzOS42MTM3IDcuODY2OSwzOS43OTM3IEwxOC40MDQ5LDQ2LjAyNTcgQzE4LjcyMDksNDYuMjEyNyAxOS4xMDk5LDQ2LjIxMjcgMTkuNDI1OSw0Ni4wMjQ3IEwyMy42Mzk5LDQzLjUxNzcgTDI3Ljk3ODksNDYuMDMxNyBDMjguMTMzOSw0Ni4xMjE3IDI4LjMwNzksNDYuMTY2NyAyOC40Nzk5LDQ2LjE2NjcgQzI4LjY1NTksNDYuMTY2NyAyOC44MzE5LDQ2LjExOTcgMjguOTg4OSw0Ni4wMjY3IEwzOS41Mjg5LDM5Ljc5NTcgQzM5LjgzMzksMzkuNjE1NyA0MC4wMTk5LDM5LjI4ODcgNDAuMDE5OSwzOC45MzQ3IEw0MC4wMTk5LDMyLjc1ODcgTDQ1LjQyNDksMjkuNzE1NyBDNDUuNzM5OSwyOS41Mzg3IDQ1LjkzNDksMjkuMjA1NyA0NS45MzQ5LDI4Ljg0NDcgTDQ1LjkzMzksMTguOTg2NyBaIi8+CiAgICA8L2c+Cjwvc3ZnPg==;" vertex="1" parent="1">
                    <mxGeometry x="430" y="266" width="38" height="38" as="geometry"/>
                </mxCell>
                <mxCell id="38" value="" style="shape=image;verticalLabelPosition=bottom;labelBackgroundColor=default;verticalAlign=top;aspect=fixed;imageAspect=0;image=data:image/svg+xml,PHN2ZyB4bWxuczp4bGluaz0iaHR0cDovL3d3dy53My5vcmcvMTk5OS94bGluayIgeG1sbnM9Imh0dHA6Ly93d3cudzMub3JnLzIwMDAvc3ZnIiB2ZXJzaW9uPSIxLjEiIHZpZXdCb3g9IjAgMCA0OCA0OCIgaGVpZ2h0PSI0OHB4IiB3aWR0aD0iNDhweCI+CiAgICA8dGl0bGU+SWNvbi1SZXNvdXJjZS9BbmFseXRpY3MvUmVzX0FtYXpvbi1PcGVuU2VhcmNoLVNlcnZpY2VfSW5kZXhfNDg8L3RpdGxlPgogICAgPGcgZmlsbC1ydWxlPSJldmVub2RkIiBmaWxsPSJub25lIiBzdHJva2Utd2lkdGg9IjEiIHN0cm9rZT0ibm9uZSIgaWQ9Ikljb24tUmVzb3VyY2UvQW5hbHl0aWNzL1Jlc19BbWF6b24tT3BlblNlYXJjaC1TZXJ2aWNlX0luZGV4XzQ4Ij4KICAgICAgICA8cGF0aCBmaWxsPSIjOEM0RkZGIiBpZD0iRmlsbC0xIiBkPSJNMjEsMzIgTDI3LDMyIEwyNywzMCBMMjEsMzAgTDIxLDMyIFogTTE2LDM0IEwzMiwzNCBMMzIsMjggTDE2LDI4IEwxNiwzNCBaIE0zMywyNiBMMTUsMjYgQzE0LjQ0NywyNiAxNCwyNi40NDggMTQsMjcgTDE0LDM1IEMxNCwzNS41NTIgMTQuNDQ3LDM2IDE1LDM2IEwzMywzNiBDMzMuNTUzLDM2IDM0LDM1LjU1MiAzNCwzNSBMMzQsMjcgQzM0LDI2LjQ0OCAzMy41NTMsMjYgMzMsMjYgTDMzLDI2IFogTTExLDEyIEwxNywxMiBMMTcsMTAgTDExLDEwIEwxMSwxMiBaIE0yNSwxMCBMMzEsMTAgTDMxLDggTDI1LDggTDI1LDEwIFogTTQsNDQgTDQ0LDQ0IEw0NCwxNiBMNCwxNiBMNCw0NCBaIE0yMiw0IEwzNCw0IEwzNCw5IEMzNCw5LjU1MiAzNC40NDcsMTAgMzUsMTAgTDQwLDEwIEw0MCwxNCBMMjIsMTQgTDIyLDQgWiBNMzYsNS4yNjEgTDM4LjY0NSw4IEwzNiw4IEwzNiw1LjI2MSBaIE00NSwxNCBMNDIsMTQgTDQyLDkgQzQyLDguNzQxIDQxLjg5OSw4LjQ5MiA0MS43Miw4LjMwNSBMMzUuOTI3LDIuMzA1IEMzNS43MzgsMi4xMSAzNS40NzksMiAzNS4yMDcsMiBMMjEsMiBDMjAuNDQ3LDIgMjAsMi40NDggMjAsMyBMMjAsMTQgTDgsMTQgTDgsNyBMMTgsNyBMMTgsNSBMNyw1IEM2LjQ0Nyw1IDYsNS40NDggNiw2IEw2LDE0IEwzLDE0IEMyLjQ0NywxNCAyLDE0LjQ0OCAyLDE1IEwyLDQ1IEMyLDQ1LjU1MiAyLjQ0Nyw0NiAzLDQ2IEw0NSw0NiBDNDUuNTUzLDQ2IDQ2LDQ1LjU1MiA0Niw0NSBMNDYsMTUgQzQ2LDE0LjQ0OCA0NS41NTMsMTQgNDUsMTQgTDQ1LDE0IFoiLz4KICAgIDwvZz4KPC9zdmc+;" vertex="1" parent="1">
                    <mxGeometry x="640" y="267.5" width="38" height="38" as="geometry"/>
                </mxCell>
                <mxCell id="39" value="" style="shape=image;verticalLabelPosition=bottom;labelBackgroundColor=default;verticalAlign=top;aspect=fixed;imageAspect=0;image=data:image/svg+xml,PHN2ZyB4bWxuczp4bGluaz0iaHR0cDovL3d3dy53My5vcmcvMTk5OS94bGluayIgeG1sbnM9Imh0dHA6Ly93d3cudzMub3JnLzIwMDAvc3ZnIiB2ZXJzaW9uPSIxLjEiIHZpZXdCb3g9IjAgMCA0OCA0OCIgaGVpZ2h0PSI0OHB4IiB3aWR0aD0iNDhweCI+CiAgICA8dGl0bGU+SWNvbi1SZXNvdXJjZS9BcHBsaWNhdGlvbi1JbnRlZ3JhdGlvbi9SZXNfQW1hem9uLUV2ZW50QnJpZGdlLUV2ZW50XzQ4PC90aXRsZT4KICAgIDxnIGZpbGwtcnVsZT0iZXZlbm9kZCIgZmlsbD0ibm9uZSIgc3Ryb2tlLXdpZHRoPSIxIiBzdHJva2U9Im5vbmUiIGlkPSJJY29uLVJlc291cmNlL0FwcGxpY2F0aW9uLUludGVncmF0aW9uL1Jlc19BbWF6b24tRXZlbnRCcmlkZ2UtRXZlbnRfNDgiPgogICAgICAgIDxwYXRoIGZpbGw9IiNFNzE1N0IiIGlkPSJJY29uLVJlc291cmNlLzQ4L0FtYXpvbi1FdmVudEJyaWRnZS1FdmVudCIgZD0iTTMwLjU4LDEwLjU4IEwyOC43NCw5Ljc5NSBMMzEuNTM4LDMuMjM3IEwzMy4zNzgsNC4wMjIgTDMwLjU4LDEwLjU4IFogTTM2LjI5NSwxNS42MDUgTDM1LjA5NCwxNC4wMDYgTDQwLjgzMSw5LjY5OCBMNDIuMDMyLDExLjI5OCBMMzYuMjk1LDE1LjYwNSBaIE0zOC40NDcsMjAuODAyIEw0NS41ODcsMTkuODk4IEw0NS44MzksMjEuODgzIEwzOC42OTksMjIuNzg2IEwzOC40NDcsMjAuODAyIFogTTM3LjkwNywyOC4zNTQgTDQ0LjUzOCwzMS4wOTggTDQzLjc3MywzMi45NDUgTDM3LjE0MywzMC4yMDIgTDM3LjkwNywyOC4zNTQgWiBNMzMuNjI1LDM0LjY0NCBMMzcuOTY4LDQwLjMgTDM2LjM4Miw0MS41MTggTDMyLjAzOSwzNS44NjMgTDMzLjYyNSwzNC42NDQgWiBNMjYuNzQzLDM3Ljk5NSBMMjcuNjM1LDQ1LjA0NiBMMjUuNjUsNDUuMjk2IEwyNC43NTksMzguMjQ1IEwyNi43NDMsMzcuOTk1IFogTTE3LjI1OSwzNi43MTYgTDE5LjA5OSwzNy41MDEgTDE2LjMwMSw0NC4wNTkgTDE0LjQ2MSw0My4yNzQgTDE3LjI1OSwzNi43MTYgWiBNMTEuNTQ0LDMxLjY5IEwxMi43NDUsMzMuMjkgTDcuMDA4LDM3LjU5OCBMNS44MDcsMzUuOTk4IEwxMS41NDQsMzEuNjkgWiBNOS4zOTIsMjYuNDk0IEwyLjI1MiwyNy4zOTggTDIsMjUuNDE0IEw5LjE0LDI0LjUxIEw5LjM5MiwyNi40OTQgWiBNOS45MzIsMTguOTQxIEwzLjMwMiwxNi4xOTggTDQuMDY1LDE0LjM1MSBMMTAuNjk2LDE3LjA5NCBMOS45MzIsMTguOTQxIFogTTE0LjIxNCwxMi42NTEgTDkuODcxLDYuOTk3IEwxMS40NTcsNS43NzggTDE1LjgsMTEuNDMzIEwxNC4yMTQsMTIuNjUxIFogTTIxLjA5Niw5LjMwMSBMMjAuMjA0LDIuMjUgTDIyLjE4OCwyIEwyMy4wOCw5LjA1MSBMMjEuMDk2LDkuMzAxIFogTTI4LjAzOSwzMC45OTkgTDE5LjM3OSwzMC45OTkgTDE1LjA0OCwyMy40OTkgTDE5LjM3OSwxNS45OTkgTDI4LjAzOSwxNS45OTkgTDMyLjM2OSwyMy40OTkgTDI4LjAzOSwzMC45OTkgWiBNMzQuMzksMjIuOTk5IEwyOS40ODIsMTQuNDk5IEMyOS4zMDQsMTQuMTg5IDI4Ljk3NCwxMy45OTkgMjguNjE2LDEzLjk5OSBMMTguODAyLDEzLjk5OSBDMTguNDQ0LDEzLjk5OSAxOC4xMTQsMTQuMTg5IDE3LjkzNSwxNC40OTkgTDEzLjAyNywyMi45OTkgQzEyLjg0OSwyMy4zMDkgMTIuODQ5LDIzLjY4OSAxMy4wMjcsMjMuOTk5IEwxNy45MzUsMzIuNDk5IEMxOC4xMTQsMzIuODA5IDE4LjQ0NCwzMi45OTkgMTguODAyLDMyLjk5OSBMMjguNjE2LDMyLjk5OSBDMjguOTc0LDMyLjk5OSAyOS4zMDQsMzIuODA5IDI5LjQ4MiwzMi40OTkgTDM0LjM5LDIzLjk5OSBDMzQuNTY4LDIzLjY4OSAzNC41NjgsMjMuMzA5IDM0LjM5LDIyLjk5OSBMMzQuMzksMjIuOTk5IFoiLz4KICAgIDwvZz4KPC9zdmc+;" vertex="1" parent="1">
                    <mxGeometry x="258" y="336" width="38" height="38" as="geometry"/>
                </mxCell>
                <mxCell id="41" value="" style="shape=image;verticalLabelPosition=bottom;labelBackgroundColor=default;verticalAlign=top;aspect=fixed;imageAspect=0;image=data:image/svg+xml,PHN2ZyB4bWxuczp4bGluaz0iaHR0cDovL3d3dy53My5vcmcvMTk5OS94bGluayIgeG1sbnM9Imh0dHA6Ly93d3cudzMub3JnLzIwMDAvc3ZnIiB2ZXJzaW9uPSIxLjEiIHZpZXdCb3g9IjAgMCA0OCA0OCIgaGVpZ2h0PSI0OHB4IiB3aWR0aD0iNDhweCI+CiAgICA8dGl0bGU+SWNvbi1SZXNvdXJjZS9NYW5hZ2VtZW50LUdvdmVybmFuY2UvUmVzX0FXUy1UcnVzdGVkLUFkdmlzb3JfQ2hlY2tsaXN0LUNvc3RfNDg8L3RpdGxlPgogICAgPGcgZmlsbC1ydWxlPSJldmVub2RkIiBmaWxsPSJub25lIiBzdHJva2Utd2lkdGg9IjEiIHN0cm9rZT0ibm9uZSIgaWQ9Ikljb24tUmVzb3VyY2UvTWFuYWdlbWVudC1Hb3Zlcm5hbmNlL1Jlc19BV1MtVHJ1c3RlZC1BZHZpc29yX0NoZWNrbGlzdC1Db3N0XzQ4Ij4KICAgICAgICA8cGF0aCBmaWxsPSIjRTcxNTdCIiBpZD0iQVdTLVRydXN0ZWQtQWR2aXNvcl9jaGVja2xpc3QtY29zdF9SZXNvdXJjZS1JY29uX2xpZ2h0LWJnIiBkPSJNMjcuMzY1NSwyNy4wNTI3IEMyNy4zNjU1LDI3LjAwNDcgMjcuMzUzNSwyNi45MTE3IDI3LjI3MzUsMjYuODMxNyBDMjcuMTk3NSwyNi43NTU3IDI3LjExMjUsMjYuNzQwNyAyNy4wNTM1LDI2Ljc0MDcgQzI3LjAwNTUsMjYuNzQwNyAyNi45MTI1LDI2Ljc1MTcgMjYuODMyNSwyNi44MzE3IEMyNi43NTI1LDI2LjkxMTcgMjYuNzQwNSwyNy4wMDQ3IDI2Ljc0MDUsMjcuMDUyNyBDMjYuNzQwNSwyNy4xMTI3IDI2Ljc1NjUsMjcuMTk3NyAyNi44MzE1LDI3LjI3MjcgQzI3LjAxMjUsMjcuNDU0NyAyNy4xMzY1LDI3LjQwOTcgMjcuMjcyNSwyNy4yNzQ3IEwyNy4yNzQ1LDI3LjI3MjcgQzI3LjM0OTUsMjcuMTk3NyAyNy4zNjU1LDI3LjExMjcgMjcuMzY1NSwyNy4wNTI3IEwyNy4zNjU1LDI3LjA1MjcgWiBNMjguNjg4NSwyNS40MTg3IEMyOS4xMjQ1LDI1Ljg1NDcgMjkuMzY1NSwyNi40MzU3IDI5LjM2NTUsMjcuMDUyNyBDMjkuMzY1NSwyNy42NzA3IDI5LjEyNDUsMjguMjUwNyAyOC42ODc1LDI4LjY4NzcgQzI4LjI1MTUsMjkuMTIzNyAyNy42NzE1LDI5LjM2NTcgMjcuMDUzNSwyOS4zNjU3IEMyNi40MzU1LDI5LjM2NTcgMjUuODU0NSwyOS4xMjM3IDI1LjQxODUsMjguNjg3NyBDMjQuOTgxNSwyOC4yNTE3IDI0Ljc0MDUsMjcuNjcwNyAyNC43NDA1LDI3LjA1MjcgQzI0Ljc0MDUsMjYuNDM1NyAyNC45ODE1LDI1Ljg1NDcgMjUuNDE4NSwyNS40MTc3IEMyNi4yOTI1LDI0LjU0NDcgMjcuODE2NSwyNC41NDU3IDI4LjY4ODUsMjUuNDE4NyBMMjguNjg4NSwyNS40MTg3IFogTTQzLjU3ODUsMzYuMjQzNyBMMzEuNDU2NSwyNC4xMjA3IEwyNC4xMjE1LDI0LjEyMDcgTDI0LjEyMTUsMzEuNDU1NyBMMzYuMjQ0NSw0My41Nzc3IEw0My41Nzg1LDM2LjI0MzcgWiBNNDUuNjk5NSwzNi45NTA3IEwzNi45NTE1LDQ1LjY5ODcgQzM2Ljc1NjUsNDUuODk0NyAzNi41MDA1LDQ1Ljk5MTcgMzYuMjQ0NSw0NS45OTE3IEMzNS45ODg1LDQ1Ljk5MTcgMzUuNzMyNSw0NS44OTQ3IDM1LjUzNzUsNDUuNjk4NyBMMjIuNDE0NSwzMi41NzY3IEMyMi4yMjY1LDMyLjM4OTcgMjIuMTIxNSwzMi4xMzU3IDIyLjEyMTUsMzEuODY5NyBMMjIuMTIxNSwyMy4xMjA3IEMyMi4xMjE1LDIyLjU2ODcgMjIuNTY4NSwyMi4xMjA3IDIzLjEyMTUsMjIuMTIwNyBMMzEuODcwNSwyMi4xMjA3IEMzMi4xMzY1LDIyLjEyMDcgMzIuMzg5NSwyMi4yMjY3IDMyLjU3NzUsMjIuNDEzNyBMNDUuNjk5NSwzNS41MzY3IEM0Ni4wOTA1LDM1LjkyNzcgNDYuMDkwNSwzNi41NjA3IDQ1LjY5OTUsMzYuOTUwNyBMNDUuNjk5NSwzNi45NTA3IFogTTYuMzI4NSwyNi42NzU3IEw0LjkyMjUsMjguMDk3NyBMNy43MjA1LDMwLjg2NjcgQzcuOTA4NSwzMS4wNTI3IDguMTYxNSwzMS4xNTY3IDguNDI0NSwzMS4xNTY3IEM4LjQ0NzUsMzEuMTU2NyA4LjQ3MDUsMzEuMTU1NyA4LjQ5NTUsMzEuMTUzNyBDOC43ODI1LDMxLjEzMjcgOS4wNDc1LDMwLjk5MDcgOS4yMjA1LDMwLjc2MDcgTDEzLjQyMDUsMjUuMjIwNyBMMTEuODI2NSwyNC4wMTE3IEw4LjMxNjUsMjguNjQyNyBMNi4zMjg1LDI2LjY3NTcgWiBNMTEuODI2NSwxNC42ODA3IEw4LjMxNjUsMTkuMzExNyBMNi4zMjg1LDE3LjM0MzcgTDQuOTIyNSwxOC43NjU3IEw3LjcyMDUsMjEuNTM1NyBDNy45MDg1LDIxLjcyMTcgOC4xNjE1LDIxLjgyNDcgOC40MjQ1LDIxLjgyNDcgQzguNDQ3NSwyMS44MjQ3IDguNDcwNSwyMS44MjM3IDguNDk1NSwyMS44MjI3IEM4Ljc4MjUsMjEuODAxNyA5LjA0NzUsMjEuNjU4NyA5LjIyMDUsMjEuNDI4NyBMMTMuNDIwNSwxNS44ODc3IEwxMS44MjY1LDE0LjY4MDcgWiBNMTEuODI2NSw1LjM0ODcgTDguMzE2NSw5Ljk3OTcgTDYuMzI4NSw4LjAxMjcgTDQuOTIyNSw5LjQzNDcgTDcuNzIwNSwxMi4yMDM3IEM3LjkwODUsMTIuMzg5NyA4LjE2MTUsMTIuNDkyNyA4LjQyNDUsMTIuNDkyNyBDOC40NDc1LDEyLjQ5MjcgOC40NzA1LDEyLjQ5MTcgOC40OTU1LDEyLjQ4OTcgQzguNzgyNSwxMi40Njk3IDkuMDQ3NSwxMi4zMjY3IDkuMjIwNSwxMi4wOTc3IEwxMy40MjA1LDYuNTU3NyBMMTEuODI2NSw1LjM0ODcgWiBNMTUuMjQ4NSwyOS4zNjk3IEwyMC40OTc1LDI5LjM2OTcgTDIwLjQ5NzUsMjcuMzY5NyBMMTUuMjQ4NSwyNy4zNjk3IEwxNS4yNDg1LDI5LjM2OTcgWiBNMTUuMjQ4NSwyMC42MjE3IEwyNi42MjE1LDIwLjYyMTcgTDI2LjYyMTUsMTguNjIxNyBMMTUuMjQ4NSwxOC42MjE3IEwxNS4yNDg1LDIwLjYyMTcgWiBNMTUuMjQ4NSwxMC45OTg3IEwyNi42MjE1LDEwLjk5ODcgTDI2LjYyMTUsOC45OTg3IEwxNS4yNDg1LDguOTk4NyBMMTUuMjQ4NSwxMC45OTg3IFogTTQuMDAwNSwzNC4zNjg3IEwyMy4xMjE1LDM0LjM2ODcgTDIzLjEyMTUsMzYuMzY4NyBMMy4wMDA1LDM2LjM2ODcgQzIuNDQ3NSwzNi4zNjg3IDIuMDAwNSwzNS45MjE3IDIuMDAwNSwzNS4zNjg3IEwyLjAwMDUsMi45OTk3IEMyLjAwMDUsMi40NDc3IDIuNDQ3NSwxLjk5OTcgMy4wMDA1LDEuOTk5NyBMMjkuMjQ1NSwxLjk5OTcgQzI5Ljc5ODUsMS45OTk3IDMwLjI0NTUsMi40NDc3IDMwLjI0NTUsMi45OTk3IEwzMC4yNDU1LDIwLjQ5NjcgTDI4LjI0NTUsMjAuNDk2NyBMMjguMjQ1NSwzLjk5OTcgTDQuMDAwNSwzLjk5OTcgTDQuMDAwNSwzNC4zNjg3IFoiLz4KICAgIDwvZz4KPC9zdmc+;" vertex="1" parent="1">
                    <mxGeometry x="50" y="478" width="38" height="38" as="geometry"/>
                </mxCell>
                <mxCell id="42" value="" style="shape=image;verticalLabelPosition=bottom;labelBackgroundColor=default;verticalAlign=top;aspect=fixed;imageAspect=0;image=data:image/svg+xml,PHN2ZyB4bWxuczp4bGluaz0iaHR0cDovL3d3dy53My5vcmcvMTk5OS94bGluayIgeG1sbnM9Imh0dHA6Ly93d3cudzMub3JnLzIwMDAvc3ZnIiB2ZXJzaW9uPSIxLjEiIHZpZXdCb3g9IjAgMCA0OCA0OCIgaGVpZ2h0PSI0OHB4IiB3aWR0aD0iNDhweCI+CiAgICA8dGl0bGU+SWNvbi1SZXNvdXJjZS9TZWN1cml0eS1JZGVudGl0eS1hbmQtQ29tcGxpYW5jZS9SZXNfQVdTLUlkZW50aXR5LUFjY2Vzcy1NYW5hZ2VtZW50X0lBTS1BY2Nlc3MtQW5hbHl6ZXJfNDg8L3RpdGxlPgogICAgPGcgZmlsbC1ydWxlPSJldmVub2RkIiBmaWxsPSJub25lIiBzdHJva2Utd2lkdGg9IjEiIHN0cm9rZT0ibm9uZSIgaWQ9Ikljb24tUmVzb3VyY2UvU2VjdXJpdHktSWRlbnRpdHktYW5kLUNvbXBsaWFuY2UvUmVzX0FXUy1JZGVudGl0eS1BY2Nlc3MtTWFuYWdlbWVudF9JQU0tQWNjZXNzLUFuYWx5emVyXzQ4Ij4KICAgICAgICA8cGF0aCBmaWxsPSIjREQzNDRDIiBpZD0iQVdTLUlkZW50aXR5LWFuZC1BY2Nlc3MtTWFuYWdlbWVudF9BV1MtSUFNLUFjY2Vzcy1BbmFseXplcl9SZXNvdXJjZS1JY29uX2xpZ2h0LWJnIiBkPSJNMTUsMjUuMDAxIEwxOSwyNS4wMDEgTDE5LDIzLjAwMSBMMTUsMjMuMDAxIEwxNSwyNS4wMDEgWiBNNCwyNy4wMDEgTDExLDI3LjAwMSBMMTEsMjAuMDAxIEw0LDIwLjAwMSBMNCwyNy4wMDEgWiBNMTIsMjkuMDAxIEwzLDI5LjAwMSBDMi40NDgsMjkuMDAxIDIsMjguNTUzIDIsMjguMDAxIEwyLDE5LjAwMSBDMiwxOC40NDggMi40NDgsMTguMDAxIDMsMTguMDAxIEwxMiwxOC4wMDEgQzEyLjU1MiwxOC4wMDEgMTMsMTguNDQ4IDEzLDE5LjAwMSBMMTMsMjguMDAxIEMxMywyOC41NTMgMTIuNTUyLDI5LjAwMSAxMiwyOS4wMDEgTDEyLDI5LjAwMSBaIE00My4yLDI3LjAwMSBMNDAsMjEuODkxIEwzNi44LDI3LjAwMSBMNDMuMiwyNy4wMDEgWiBNNDUuODcsMjguNDgxIEM0NS42OTYsMjguNzk5IDQ1LjM2MiwyOC45OTggNDUsMjkuMDAxMDAxNyBMMzUsMjkuMDAxMDAxNyBDMzQuNDQ4LDI5LjAwMiAzMy45OTksMjguNTU1IDMzLjk5Nzk4NjEsMjguMDAzIEMzMy45OTcsMjcuODE1IDM0LjA1LDI3LjYzMSAzNC4xNDksMjcuNDcxIEwzOS4xNDksMTkuNDcxIEMzOS40NCwxOS4wMDEgNDAuMDU4LDE4Ljg1NyA0MC41MjYsMTkuMTQ4IEM0MC42NTgsMTkuMjI5IDQwLjc2OSwxOS4zNCA0MC44NTEsMTkuNDcxIEw0NS44NTEsMjcuNDcxIEM0Ni4wMzgsMjcuNzc5IDQ2LjA0NiwyOC4xNjUgNDUuODcsMjguNDgxIEw0NS44NywyOC40ODEgWiBNNDMsNDEuMDAxIEM0MywzOS4zNDQgNDEuNjU3LDM4LjAwMSA0MCwzOC4wMDEgQzM4LjM0MywzOC4wMDEgMzcsMzkuMzQ0IDM3LDQxLjAwMSBDMzcsNDIuNjU4IDM4LjM0Myw0NC4wMDEgNDAsNDQuMDAxIEM0MS42NTcsNDQuMDAxIDQzLDQyLjY1OCA0Myw0MS4wMDEgTDQzLDQxLjAwMSBaIE00NSw0MS4wMDEgQzQ1LjAwMyw0My43NjIgNDIuNzY3LDQ2LjAwMyA0MC4wMDUsNDYuMDA2MDAxOCBDMzcuNjI1LDQ2LjAwOCAzNS41NzMsNDQuMzMzIDM1LjEwMSw0Mi4wMDEgTDcsNDIuMDAxIEM2LjQ0OCw0Mi4wMDEgNiw0MS41NTMgNiw0MS4wMDEgTDYsMzEuMDAxIEw4LDMxLjAwMSBMOCw0MC4wMDEgTDM1LjEwMSw0MC4wMDEgQzM1LjY0OSwzNy4yOTUgMzguMjg4LDM1LjU0NiA0MC45OTUsMzYuMDk2IEM0My4zMjcsMzYuNTY5IDQ1LjAwMywzOC42MjEgNDUsNDEuMDAxIEw0NSw0MS4wMDEgWiBNMjIsMjUuMDAxIEwyNiwyNS4wMDEgTDI2LDIzLjAwMSBMMjIsMjMuMDAxIEwyMiwyNS4wMDEgWiBNMzcsNy4wMDEgQzM3LDguNjU4IDM4LjM0MywxMC4wMDEgNDAsMTAuMDAxIEM0MS42NTcsMTAuMDAxIDQzLDguNjU4IDQzLDcuMDAxIEM0Myw1LjM0NCA0MS42NTcsNC4wMDEgNDAsNC4wMDEgQzM4LjM0Myw0LjAwMSAzNyw1LjM0NCAzNyw3LjAwMSBMMzcsNy4wMDEgWiBNOCwxNi4wMDEgTDYsMTYuMDAxIEw2LDcuMDAxIEM2LDYuNDQ4IDYuNDQ4LDYuMDAxIDcsNi4wMDEgTDM1LjEwMSw2LjAwMSBDMzUuNjUyLDMuMjk1IDM4LjI5NCwxLjU1IDQwLjk5OSwyLjEwMiBDNDMuNzA0LDIuNjU0IDQ1LjQ1LDUuMjk1IDQ0Ljg5Nyw4LjAwMSBDNDQuMzQ2LDEwLjcwNiA0MS43MDQsMTIuNDUyIDM4Ljk5OSwxMS45IEMzNy4wMzUsMTEuNDk5IDM1LjUwMSw5Ljk2NSAzNS4xMDEsOC4wMDEgTDgsOC4wMDEgTDgsMTYuMDAxIFogTTI5LDI1LjAwMSBMMzMsMjUuMDAxIEwzMywyMy4wMDEgTDI5LDIzLjAwMSBMMjksMjUuMDAxIFoiLz4KICAgIDwvZz4KPC9zdmc+;" vertex="1" parent="1">
                    <mxGeometry x="375" y="51" width="38" height="38" as="geometry"/>
                </mxCell>
                <mxCell id="43" value="" style="shape=image;verticalLabelPosition=bottom;labelBackgroundColor=default;verticalAlign=top;aspect=fixed;imageAspect=0;image=data:image/svg+xml,PHN2ZyB4bWxuczp4bGluaz0iaHR0cDovL3d3dy53My5vcmcvMTk5OS94bGluayIgeG1sbnM9Imh0dHA6Ly93d3cudzMub3JnLzIwMDAvc3ZnIiB2ZXJzaW9uPSIxLjEiIHZpZXdCb3g9IjAgMCA0OCA0OCIgaGVpZ2h0PSI0OHB4IiB3aWR0aD0iNDhweCI+CiAgICA8dGl0bGU+SWNvbi1SZXNvdXJjZS9TZWN1cml0eS1JZGVudGl0eS1hbmQtQ29tcGxpYW5jZS9SZXNfQVdTLVNlY3VyaXR5LUh1Yl9GaW5kaW5nXzQ4PC90aXRsZT4KICAgIDxnIGZpbGwtcnVsZT0iZXZlbm9kZCIgZmlsbD0ibm9uZSIgc3Ryb2tlLXdpZHRoPSIxIiBzdHJva2U9Im5vbmUiIGlkPSJJY29uLVJlc291cmNlL1NlY3VyaXR5LUlkZW50aXR5LWFuZC1Db21wbGlhbmNlL1Jlc19BV1MtU2VjdXJpdHktSHViX0ZpbmRpbmdfNDgiPgogICAgICAgIDxwYXRoIGZpbGw9IiNERDM0NEMiIGlkPSJBV1MtU2VjdXJpdHktSHViX0ZpbmRpbmdfUmVzb3VyY2UtSWNvbl9saWdodC1iZyIgZD0iTTIwLjMwMDgsMzcuNjUyOCBMMjAuMzAwOCw5Ljg1MjggTDExLjQzMzgsMTMuMDE5OCBMMTEuNDMzOCwyOS4zOTE4IEMxMS40MzM4LDMwLjcwMDggMTMuMDE5OCwzNy4xMDI4IDIwLjMwMDgsMzcuNjUyOCBMMjAuMzAwOCwzNy42NTI4IFogTTMxLjE2NjgsMjQuNzMwOCBMMzEuMTY2OCwxMy4wMTk4IEwyMi4zMDA4LDkuODUyOCBMMjIuMzAwOCwzNy43MDQ4IEwyMy42MTQ4LDM3LjcwMjggTDIzLjYxNDgsMzkuNzAyOCBMMjEuMzAwOCwzOS43MDY4IEMxMi4yNDU4LDM5LjcwNjggOS40MzM4LDMyLjE0NTggOS40MzM4LDI5LjM5MTggTDkuNDMzOCwxMi4zMTQ4IEM5LjQzMzgsMTEuODkxOCA5LjY5ODgsMTEuNTE0OCAxMC4wOTc4LDExLjM3MzggTDIwLjk2NDgsNy40OTI4IEMyMS4xODE4LDcuNDE0OCAyMS40MTk4LDcuNDE0OCAyMS42MzY4LDcuNDkyOCBMMzIuNTAyOCwxMS4zNzM4IEMzMi45MDE4LDExLjUxNDggMzMuMTY2OCwxMS44OTE4IDMzLjE2NjgsMTIuMzE0OCBMMzMuMTY2OCwyNC43MzA4IEwzMS4xNjY4LDI0LjczMDggWiBNMjEuMzAwOCw0My4xMzk4IEM2LjE3MzgsNDMuMTM5OCA1Ljk5OTgsMjguNDY0OCA1Ljk5OTgsMjcuODM5OCBMNS45OTk4LDkuODk5OCBMMjEuMzAwOCw0LjA3MDggTDM2LjYwMDgsOS44OTk4IEwzNi42MDA4LDIzLjE3NzggTDM4LjYwMDgsMjMuMTc3OCBMMzguNjAwOCw5LjIxMDggQzM4LjYwMDgsOC43OTU4IDM4LjM0NDgsOC40MjM4IDM3Ljk1NjgsOC4yNzU4IEwyMS42NTY4LDIuMDY1OCBDMjEuNDI2OCwxLjk3NzggMjEuMTc0OCwxLjk3NzggMjAuOTQ0OCwyLjA2NTggTDQuNjQzOCw4LjI3NTggQzQuMjU1OCw4LjQyMzggMy45OTk4LDguNzk1OCAzLjk5OTgsOS4yMTA4IEwzLjk5OTgsMjcuODM5OCBDMy45OTk4LDMzLjgyMzggNy42MTU4LDQ1LjEzOTggMjEuMzAwOCw0NS4xMzk4IEMyMi42Nzg4LDQ1LjEzOTggMjQuMDAwOCw0NS4wMzU4IDI1LjIzMDgsNDQuODI5OCBMMjQuOTAwOCw0Mi44NTY4IEMyMy43Nzk4LDQzLjA0NDggMjIuNTY4OCw0My4xMzk4IDIxLjMwMDgsNDMuMTM5OCBMMjEuMzAwOCw0My4xMzk4IFogTTQyLjg1MzgsMzUuNjMxOCBDNDIuODUzOCwzMS4wMjg4IDM5LjEwODgsMjcuMjgzOCAzNC41MDU4LDI3LjI4MzggQzI5LjkwMjgsMjcuMjgzOCAyNi4xNTY4LDMxLjAyODggMjYuMTU2OCwzNS42MzE4IEMyNi4xNTY4LDQwLjE5NzggMjkuODkxOCw0My45MTI4IDM0LjQ4MTgsNDMuOTEyOCBDMzkuMDk3OCw0My45MTI4IDQyLjg1MzgsNDAuMTk3OCA0Mi44NTM4LDM1LjYzMTggTDQyLjg1MzgsMzUuNjMxOCBaIE00NC44NTM4LDM1LjYzMTggQzQ0Ljg1MzgsNDEuMjk5OCA0MC4xOTk4LDQ1LjkxMjggMzQuNDgxOCw0NS45MTI4IEMyOC43ODg4LDQ1LjkxMjggMjQuMTU2OCw0MS4yOTk4IDI0LjE1NjgsMzUuNjMxOCBDMjQuMTU2OCwyOS45MjQ4IDI4Ljc5OTgsMjUuMjgzOCAzNC41MDU4LDI1LjI4MzggQzQwLjIxMTgsMjUuMjgzOCA0NC44NTM4LDI5LjkyNDggNDQuODUzOCwzNS42MzE4IEw0NC44NTM4LDM1LjYzMTggWiBNMzMuNDgxOCw0MS44MDY4IEwzNS40ODE4LDQxLjgwNjggTDM1LjQ4MTgsNDAuMjU0OCBMMzMuNDgxOCw0MC4yNTQ4IEwzMy40ODE4LDQxLjgwNjggWiBNMzMuNTA1OCwzOC42MjQ4IEwzNS41MDU4LDM4LjYyNDggTDM1LjUwNTgsMzAuMTY0OCBMMzMuNTA1OCwzMC4xNjQ4IEwzMy41MDU4LDM4LjYyNDggWiIvPgogICAgPC9nPgo8L3N2Zz4=;" vertex="1" parent="1">
                    <mxGeometry x="47.5" y="406" width="38" height="38" as="geometry"/>
                </mxCell>
            </root>
        </mxGraphModel>
    </diagram>
</mxfile>
